<?xml version="1.0" encoding="UTF-8"?>
<svg id="Livello_1" data-name="Livello 1" xmlns="http://www.w3.org/2000/svg" viewBox="0 0 1280.02 290.16">
  <defs>
    <style>
      .cls-1 {
        fill: #fff;
        stroke-width: 0px;
      }
    </style>
  </defs>
  <g>
    <path class="cls-1" d="m272.2,27.7c-6.99-4.14-15.41-7.14-25.05-8.73-9.58-1.59-19.51-1.59-29.27-.26-9.73,1.33-19.32,4-28.27,7.77-8.97,3.79-17.31,8.7-24.52,14.54-7.25,5.84-13.37,12.66-17.84,20.21-4.51,7.59-6.92,15.26-7.41,22.61-.47,7.42,1,14.52,4.26,20.92,3.3,6.47,8.42,12.23,15.18,16.88,6.82,4.68,15.3,8.23,25.24,10.24,10,2.02,20.49,2.28,30.9.99,10.43-1.29,20.71-4.12,30.29-8.21,9.55-4.1,18.34-9.48,25.8-15.85,7.42-6.35,13.5-13.68,17.64-21.73,4.11-7.97,5.95-15.9,5.77-23.36-.19-7.38-2.35-14.33-6.27-20.47-3.85-6.09-9.42-11.38-16.45-15.56h0Z"/>
    <path class="cls-1" d="m322.02,51.52c-6.77-10.32-16.35-19.26-28.29-26.23-11.8-6.89-25.93-11.91-42.04-14.51-15.95-2.56-32.41-2.55-48.56-.34-16.11,2.22-31.99,6.63-46.84,12.89-14.88,6.26-28.81,14.42-40.94,24.13-12.24,9.76-22.7,21.17-30.55,33.88-7.93,12.87-12.43,25.9-13.75,38.51-1.33,12.79.63,25.15,5.67,36.4,5.12,11.43,13.39,21.69,24.56,30.09,11.32,8.52,25.61,15.09,42.55,18.92,17.11,3.88,35.22,4.59,53.22,2.53,18.1-2.1,36-6.96,52.64-14.17,16.6-7.19,31.84-16.68,44.68-27.98,12.76-11.21,23.08-24.14,30.02-38.3,6.83-13.96,9.69-27.75,9.09-40.68-.6-12.75-4.58-24.67-11.46-35.14h0Zm-15.52,55.41c-5.54,11.02-13.71,21.06-23.77,29.78-10.11,8.77-22.07,16.14-35.07,21.75-13.03,5.63-27.05,9.45-41.24,11.14-14.13,1.67-28.39,1.22-41.9-1.66-13.41-2.87-24.78-7.86-33.86-14.38-8.99-6.46-15.71-14.41-19.96-23.29-4.18-8.75-5.96-18.44-5.1-28.49.84-9.95,4.26-20.27,10.43-30.48,6.12-10.14,14.39-19.25,24.12-27.05,9.67-7.79,20.8-14.32,32.74-19.34,11.9-5.03,24.65-8.58,37.59-10.35,12.97-1.78,26.18-1.78,38.97.31,12.87,2.1,24.16,6.11,33.51,11.63,9.48,5.58,17.04,12.68,22.32,20.87,5.34,8.29,8.38,17.69,8.74,27.7.37,10.17-2,20.97-7.49,31.87h-.03Z"/>
    <path class="cls-1" d="m373.66,110.54c-1.28-18.43-7.38-35.58-17.5-50.56-9.91-14.68-23.72-27.3-40.77-37.13-16.72-9.63-36.65-16.6-59.2-20.19-22.26-3.54-45.16-3.45-67.61-.34-22.33,3.1-44.38,9.23-65.05,17.91-20.73,8.71-40.24,20.06-57.36,33.57-17.32,13.67-32.33,29.68-43.81,47.62C10.67,119.68,3.66,138.31,1.11,156.45c-2.62,18.5-.59,36.54,5.81,53.1,6.56,16.93,17.7,32.31,33.14,45.02,15.75,12.98,35.92,23.14,60.14,29.3,24.57,6.24,50.76,7.71,76.97,4.95,26.37-2.78,52.51-9.82,76.81-20.47,24.22-10.62,46.4-24.7,65.01-41.54,18.38-16.62,33.11-35.8,42.8-56.72,9.5-20.54,13.18-40.7,11.87-59.56h0Zm-30.86,37.86c-8.32,17.45-20.83,33.41-36.35,47.27-15.69,13.98-34.34,25.69-54.67,34.55-20.39,8.89-42.31,14.83-64.46,17.25-22.04,2.45-44.12,1.4-64.92-3.61-20.52-4.92-37.76-13.2-51.32-23.87-13.32-10.48-23.08-23.22-28.96-37.33-5.76-13.84-7.81-28.97-5.91-44.59,1.88-15.33,7.58-31.14,17.35-46.69,9.64-15.33,22.36-29.03,37.11-40.74,14.62-11.63,31.35-21.38,49.17-28.86,17.77-7.48,36.75-12.76,55.97-15.43,19.32-2.66,39.01-2.7,58.12.36,19.34,3.08,36.36,9.09,50.62,17.37,14.47,8.4,26.13,19.16,34.45,31.65,8.46,12.7,13.45,27.18,14.36,42.75.92,15.82-2.38,32.75-10.55,49.92h-.01Z"/>
  </g>
  <g>
    <path class="cls-1" d="m535.31,54.03c-10.4-.98-33.69-1.49-48.29-1.49-34.67,0-52.74,13.12-52.74,46.07v134.71c0,2.73,2.22,4.96,4.95,4.96h12.64c2.72,0,4.95-2.23,4.95-4.96v-80.97h76.02c2.72,0,4.96-2.23,4.96-4.95v-9.41c0-2.72-2.23-4.96-4.96-4.96h-76.02v-34.42c0-18.83,4.21-25.75,30.46-25.75h47.79c1.73,0,2.73-1.24,2.73-2.98v-12.38c0-1.48-1-3.21-2.48-3.47h-.01Z"/>
    <path class="cls-1" d="m591.26,54.29h-13.62c-2.72,0-4.46,2.22-4.46,4.7v174.33c0,2.73,1.98,4.95,4.46,4.95h13.62c2.71,0,4.45-2.47,4.45-4.95V58.99c0-2.73-1.97-4.7-4.45-4.7h0Z"/>
    <path class="cls-1" d="m818.99,54.27h-13.14c-2.71,0-4.7,2.23-4.7,4.71v113.42c0,33.43-6.68,48.54-34.67,48.54-4.21,0-17.34-.75-22.78-2.23V58.75c0-2.73-1.73-4.47-4.45-4.47h-13.38c-2.72,0-4.7,2.23-4.7,4.71v159.72c-5.46,1.48-18.58,2.23-22.79,2.23-27.98,0-34.67-15.1-34.67-48.54V58.98c0-2.48-2.23-4.71-4.71-4.71h-13.13c-2.72,0-4.7,2.23-4.7,4.71v113.42c0,43.09,14.85,67.6,52.49,67.6,12.89,0,24.52-1.24,38.64-6.2,14.11,4.96,26,6.2,38.87,6.2,37.64,0,52.5-24.52,52.5-67.6V58.98c0-2.48-2.23-4.71-4.7-4.71h.02Z"/>
    <path class="cls-1" d="m929.9,52.55h-14.37c-35.67,0-53.23,13.37-53.23,51.26v129.5c0,2.48,1.99,4.96,4.45,4.96h13.62c2.73,0,4.46-2.48,4.46-4.96v-73.3h75.78v73.3c0,2.74,1.98,4.96,4.46,4.96h13.6c2.49,0,4.47-2.48,4.47-4.96V103.81c0-37.89-17.84-51.26-53.24-51.26h0Zm30.71,87.65h-75.78v-36.39c0-25.75,8.17-31.45,30.7-31.45h14.37c22.53,0,30.71,5.7,30.71,31.45v36.39h0Z"/>
    <path class="cls-1" d="m1101.73,157.53c22.55-5.94,38.88-22.28,38.88-50.02v-1.74c0-40.12-30.21-53.25-69.33-53.25-14.37,0-32.94.75-43.59,1.99-4.45.5-5.94,1.98-5.94,5.44v173.35c0,2.72,1.99,4.95,4.47,4.95h13.37c2.73,0,4.46-2.47,4.46-4.95v-72.8c13.13.48,19.07.74,27.24.74h6.43l44.34,73.79c1.98,3.22,3.46,3.22,6.42,3.22h15.86c1.99,0,3.23-1.48,3.23-3.22,0-.74-.27-1.49-.74-2.23l-45.08-75.29-.02.02Zm-30.45-15.6c-5.69,0-16.35-.25-27.24-.49v-67.86c5.95-.75,19.56-.75,27.24-.75,30.95,0,47.05,8.17,47.05,32.94v1.74c0,26.75-16.6,34.42-47.05,34.42Z"/>
    <path class="cls-1" d="m1229.51,72.84h47.79c1.72,0,2.71-1.23,2.71-2.96v-12.39c0-1.48-.99-3.22-2.47-3.47-10.4-.99-33.67-1.49-48.28-1.49-34.68,0-52.76,13.13-52.76,46.07v95.34c0,32.94,18.08,46.07,52.76,46.07,14.61,0,38.87-.25,48.28-1.24,1.48-.25,2.47-1.98,2.47-3.47v-12.63c0-1.73-.99-2.97-2.71-2.97h-47.79c-26.25,0-30.47-6.94-30.47-25.76v-41.61h76.03c2.73,0,4.95-2.22,4.95-4.96v-9.4c0-2.72-2.22-4.95-4.95-4.95h-76.03v-34.43c0-18.82,4.22-25.76,30.47-25.76h0Z"/>
  </g>
</svg>