<?xml version="1.0" encoding="utf-8"?>
<!-- Generator: Adobe Illustrator 28.0.0, SVG Export Plug-In . SVG Version: 6.00 Build 0)  -->
<svg version="1.1" id="Livello_1" xmlns="http://www.w3.org/2000/svg" xmlns:xlink="http://www.w3.org/1999/xlink" x="0px" y="0px"
	 viewBox="0 0 1279.99 214.77" style="enable-background:new 0 0 1279.99 214.77;" xml:space="preserve">
<style type="text/css">
	.st0{fill:#FFFFFF;}
</style>
<path class="st0" d="M0,5.45v209.31h62.85V0L0,5.45z"/>
<path class="st0" d="M238.25,124.92c0-49.13-27.89-62.95-76.95-62.95c-23.73,0-66.06,10.3-83.07,19.62l13.14,43.68
	c19.57-6.75,48.11-14.13,63.5-14.13c13.16,0,20.84,1.27,20.84,14.46v6.09c-68.94,5.12-100.38,17.02-100.38,60.06
	c0,8.59,1.71,16.31,4.76,23.01h158.6c-0.24-5.73-0.45-10.84-0.45-13.36L238.25,124.92C238.24,124.92,238.25,124.92,238.25,124.92z
	 M175.73,191.74c-4.17,3.85-10.91,9.97-18.6,9.97c-10.25,0-17.64-6.44-17.64-16.06c0-13.83,8.01-19.93,36.24-21.53V191.74
	L175.73,191.74z"/>
<path class="st0" d="M330.95,188.86V8.33h-66.38v206.42H419.1l1.96-25.89H330.95z"/>
<path class="st0" d="M521.12,196.88c-20.53,0-33.38-8.02-34.02-26.32h105.84c0.64-5.47,1.91-23.77,1.91-29.23
	c0-51.09-32.08-79.35-83.37-79.35s-88.83,37.59-88.83,90.9c0,25.95,6.51,46.77,18.74,61.89h144.72l-9.54-29.76
	C562.78,190.15,536.19,196.88,521.12,196.88z M511.49,105.68c14.75,0,21.8,11.55,21.8,27.61c0,1.61-0.31,3.52-0.63,4.81H487.1
	C487.1,120.12,494.48,105.68,511.49,105.68z"/>
<path class="st0" d="M811.34,110.49V65.84h-37.21V18.29l-61.9,11.24v36.3h-35.26V18.29l-61.91,11.24v37.28l-19.55,5.46v38.22h18.6
	v80.3c0,8.66,1.93,16.79,5.43,23.97h91.93l-1.8-21.07c-5.13,0.96-13.14,1.92-18.92,1.92c-8,0-13.78-2.58-13.78-11.23V110.5h34.32
	v80.3c0,8.66,1.92,16.79,5.41,23.97h91.95l-1.82-21.07c-5.12,0.96-13.13,1.92-18.92,1.92c-8.01,0-13.79-2.58-13.79-11.23v-73.88
	L811.34,110.49L811.34,110.49L811.34,110.49z"/>
<path class="st0" d="M924.54,65.84v116.92c-6.4,7.71-12.5,11.55-20.83,11.55c-12.85,0-18.31-9.64-18.31-24.72V65.83h-62.84v111.46
	c0,15.17,2.65,27.61,7.44,37.46h157.4V65.84H924.54L924.54,65.84z"/>
<path class="st0" d="M1093.24,123.31c4.47,0,14.42,1.94,19.22,3.23l5.78-61.37c-4.16-1.28-11.87-3.21-16.68-3.21
	c-16.66,0-28.86,16.72-38.49,33.74h-0.32l1.27-29.87h-60.58v148.92h62.84v-78.56C1066.29,125.9,1082.97,123.31,1093.24,123.31z"/>
<path class="st0" d="M1279.55,124.92c0-49.13-27.89-62.95-76.95-62.95c-23.76,0-66.08,10.3-83.07,19.62l13.15,43.68
	c19.56-6.75,48.11-14.13,63.49-14.13c13.13,0,20.85,1.27,20.85,14.46v6.09c-68.95,5.12-100.39,17.02-100.39,60.06
	c0,8.59,1.7,16.31,4.75,23.01h158.61c-0.27-5.73-0.44-10.84-0.44-13.36L1279.55,124.92L1279.55,124.92L1279.55,124.92z
	 M1217.02,191.74c-4.17,3.85-10.91,9.97-18.62,9.97c-10.26,0-17.63-6.44-17.63-16.06c0-13.83,8.02-19.93,36.23-21.53v27.61
	L1217.02,191.74L1217.02,191.74z"/>
</svg>
