<?xml version="1.0" encoding="UTF-8"?>
<svg id="Livello_1" data-name="Livello 1" xmlns="http://www.w3.org/2000/svg" viewBox="0 0 1279.97 254.37">
  <defs>
    <style>
      .cls-1 {
        fill: #fff;
        stroke-width: 0px;
      }
    </style>
  </defs>
  <path class="cls-1" d="m48.04,185.97V0h-8.87L0,18.65v5.54l9.89,9.72v152.06c0,8.76-.56,12.44-9.72,13v9.33h57.6v-9.33c-9.16-.56-9.73-4.24-9.73-13"/>
  <path class="cls-1" d="m158.83,181.67v-67.77c0-29.17-17.24-43.81-50.54-43.81-26.06,0-43.58,13.29-43.58,31.49,0,9.89,6.78,19.62,18.93,19.62,11.03,0,16.68-7.07,16.68-15.83,0-11.14-9.95-13.96-9.95-17.64,0-3.96,4.92-5.82,11.25-5.82,13.4,0,18.77,6.39,18.77,22.38v19.22l-22.95,10.46c-25.55,11.59-36.41,22.66-36.41,43.86s14.7,33.3,33.35,33.3c11.31,0,22.33-6.78,28.55-17.52,2.54,11.03,11.02,17.52,22.89,17.52,10.46,0,19.78-4.52,24.31-10.46v-9.38c-1.7,1.13-3.68,1.69-5.37,1.69-3.96,0-5.94-3.39-5.94-11.31m-38.44-5.65c0,8.48-4.81,15.26-12.15,15.26s-11.3-6.33-11.3-19.95c0-15.94,4.52-22.95,13.34-29.28l10.12-6.95v40.92h-.01Z"/>
  <path class="cls-1" d="m351.7,159.51c-5.34-35.34-17.3-48.38-43.07-53.7,31.88-6.39,46.3-23.18,46.3-47.2,0-32.67-22.33-52.68-67.44-52.68h-68.11v9.27c13.85,1.13,15.26,5.65,15.26,18.94v145.9c0,13-3.39,17.81-15.26,18.94v9.33h73.99v-9.33c-12.16-1.13-15.26-5.94-15.26-18.94v-69.7h4.24c9.61,0,17.3,3.73,19.79,12.49,3.9,13.9,4.05,44.47,9.61,63.87,5.3,18.47,18.38,23,35.33,23,13,0,22.33-3.95,26.01-6.5l-.56-9.33c-11.31,2.82-15.92-1.99-20.81-34.37m-71.05-61.05h-2.54V18.13h3.5c23.23,0,29,12.27,29,42.05s-5.93,38.27-29.96,38.27"/>
  <path class="cls-1" d="m435.93,186.2c-17.36,0-29.33-18.24-30.72-57.09h61.59v-4.24c0-34.99-19.17-55.06-45.05-55.06-30.42,0-54.16,27.7-54.16,72.92,0,42.68,22.61,68.52,53.31,68.52,22.89,0,37.59-11.76,46.86-35.05l-8.2-5.99c-6.56,10.57-12.78,16-23.63,16m-16.11-104.52c6.89,0,12.1,8.77,12.1,31.43v4.18h-26.8c.54-27.76,6.81-35.61,14.7-35.61"/>
  <path class="cls-1" d="m550.45,70.09c-13.57,0-23.68,6.73-31.03,17.58v-17.58h-8.88l-39.17,15.94v5.54l9.9,9.72v130.75c0,8.76-.56,12.44-10.18,13v9.33h58.79v-9.33c-9.89-.56-10.46-4.24-10.46-13v-23.74c5.09,1.98,11.36,3.11,17.58,3.11,32.28,0,52.51-29.28,52.51-77.61,0-42.96-16.05-63.7-39.06-63.7m-17.47,129.33c-9.44,0-13.57-7.63-13.57-20.91v-68.62c0-11.03,5.93-18.94,14.3-18.94,11.19,0,15.09,17.29,15.09,58.79,0,33.24-2.03,49.69-15.83,49.69"/>
  <path class="cls-1" d="m703.07,176.92v-106.84h-8.76l-37.88,8.99v7.91c7.69,3.11,8.48,9.44,8.48,20.35v65.06c0,9.66-5.82,17.46-14.47,17.46-7.91,0-11.02-5.31-11.02-14.53v-105.25h-8.71l-39.46,8.99v7.91c8.48,1.41,10.06,7.91,10.06,20.35v59.3c0,31.15,13.51,45.05,33.24,45.05,13.06,0,23.4-7.18,30.36-18.48v16.39h7.86l39.22-5.82v-9.33c-8.14-1.75-8.93-4.18-8.93-17.52"/>
  <path class="cls-1" d="m790.01,70.09c-13.34,0-23.46,6.95-30.81,17.58V0h-8.93l-39.06,18.65v5.54l9.84,9.72v158.39c10.4,10.68,29,19.11,53.42,19.11,34.54,0,54.83-29.28,54.83-77.61,0-42.96-16.05-63.7-39.29-63.7m-17.18,129.33c-9.5,0-13.62-6.5-13.62-17.52v-72.01c0-11.03,5.94-18.94,14.3-18.94,11.19,0,15.09,17.29,15.09,58.79,0,33.24-2.03,49.69-15.77,49.69"/>
  <path class="cls-1" d="m907.47,70.09c-13.34,0-23.46,6.95-30.81,17.58V0h-8.93l-39.06,18.65v5.54l9.84,9.72v158.39c10.4,10.68,29,19.11,53.42,19.11,34.54,0,54.83-29.28,54.83-77.61,0-42.96-16.05-63.7-39.29-63.7m-17.18,129.33c-9.49,0-13.62-6.5-13.62-17.52v-72.01c0-11.03,5.94-18.94,14.3-18.94,11.19,0,15.09,17.29,15.09,58.79,0,33.24-2.03,49.69-15.77,49.69"/>
  <path class="cls-1" d="m998.77,185.97V0h-8.88l-39.17,18.65v5.54l9.89,9.72v152.06c0,8.76-.56,12.44-9.72,13v9.33h57.6v-9.33c-9.16-.56-9.72-4.24-9.72-13"/>
  <path class="cls-1" d="m1042.58,51.21c11.42,0,21.08-9.1,21.08-20.8s-9.38-21.08-21.08-21.08-21.37,9.67-21.37,21.08,9.67,20.8,21.37,20.8"/>
  <path class="cls-1" d="m1061.23,185.97v-115.88h-8.87l-39.17,15.94v5.54l9.89,9.72v84.68c0,8.76-.57,12.44-9.72,13v9.33h57.6v-9.33c-9.16-.56-9.72-4.24-9.72-13"/>
  <path class="cls-1" d="m1132.45,105.08c0,8.76,5.09,16.11,16.11,16.11,12.15,0,18.65-9.95,18.65-20.52,0-18.43-15.37-30.58-37.2-30.58-31.65,0-57.77,24.53-57.77,75.18,0,39.56,21.36,66.42,52.45,66.42,22.61,0,33.41-15.26,40.76-34.2l-12.78-6.56c-5.77,13.57-10.74,21.03-20.97,21.03-15.94,0-22.38-20.92-22.38-64.78,0-36.74,8.71-45.28,21.53-45.28,6.28,0,10.8,2.32,10.8,5.82s-9.21,5.99-9.21,17.35"/>
  <path class="cls-1" d="m1274.62,192.98c-3.96,0-5.94-3.39-5.94-11.31v-67.77c0-29.17-17.24-43.81-50.54-43.81-26.06,0-43.58,13.29-43.58,31.49,0,9.89,6.78,19.62,18.93,19.62,11.03,0,16.68-7.07,16.68-15.83,0-11.14-9.95-13.96-9.95-17.64,0-3.96,4.92-5.82,11.25-5.82,13.39,0,18.76,6.39,18.76,22.38v19.22l-22.95,10.46c-25.55,11.59-36.41,22.66-36.41,43.86s14.7,33.3,33.35,33.3c11.31,0,22.33-6.78,28.55-17.52,2.54,11.03,11.02,17.52,22.89,17.52,10.46,0,19.79-4.52,24.31-10.46v-9.38c-1.7,1.13-3.68,1.69-5.37,1.69m-44.38-16.96c0,8.48-4.8,15.26-12.15,15.26s-11.31-6.33-11.31-19.95c0-15.94,4.52-22.95,13.34-29.28l10.12-6.95v40.92h0Z"/>
</svg>