<?xml version="1.0" encoding="utf-8"?>
<!-- Generator: Adobe Illustrator 28.0.0, SVG Export Plug-In . SVG Version: 6.00 Build 0)  -->
<svg version="1.1" id="Livello_1" xmlns="http://www.w3.org/2000/svg" xmlns:xlink="http://www.w3.org/1999/xlink" x="0px" y="0px"
	 viewBox="0 0 1280 233.99" style="enable-background:new 0 0 1280 233.99;" xml:space="preserve">
<style type="text/css">
	.st0{fill:#FFFFFF;}
</style>
<path class="st0" d="M131.22,75.67V59.03c12.34,0,22.27-5.37,22.27-12.61c0-2.68-3.49-5.64-6.71-7.51
	c-7.78-4.56-12.08-9.93-12.08-17.44C134.7,9.39,143.82,0,157.78,0c15.3,0,26.83,12.08,26.83,29.25c0,28.18-20.13,46.42-53.4,46.42"
	/>
<path class="st0" d="M0,188.37v-22.54h16.1c9.39,0,12.34-4.03,12.34-13.15V39.17c0-9.39-2.95-13.15-12.34-13.15H0V3.48h113.24v22.54
	H92.31c-9.12,0-12.34,3.76-12.34,13.15v113.51c0,11,2.15,13.15,15.03,13.15h24.69c23.35,0,36.76-11.54,36.76-41.32V107.6h25.76
	v80.77H0z"/>
<path class="st0" d="M193.48,188.37v-22.54h16.1c9.39,0,12.34-2.42,12.34-11.81V37.29c0-9.12-2.95-11.54-12.34-11.54h-16.1V3.21
	h185.69v72.18h-25.22V60.9c0-23.88-12.88-35.15-33.54-35.15h-35.15c-9.12,0-12.34,2.42-12.34,11.54v45.62h19.32
	c9.12,0,13.15-5.9,13.42-15.56l0.27-16.1h23.08v89.09h-23.08l-0.27-20.93c0-9.66-4.83-13.95-13.95-13.95h-18.78v48.57
	c0,9.39,2.68,11.81,11.81,11.81h30.86c26.83,0,40.25-8.32,40.25-40.52v-12.08h25.49v75.14L193.48,188.37L193.48,188.37z"/>
<path class="st0" d="M450.28,190.52c-17.98,0-30.32-5.37-35.96-8.32c-4.03-1.07-6.98,2.68-7.78,6.17h-17.17v-45.08h19.59
	c0,0,0.27,4.03,0.81,5.64c1.07,13.42,14.76,22.27,31.66,22.27c13.95,0,20.93-5.1,20.93-12.34c0-6.17-3.49-10.47-18.25-13.69
	l-20.66-4.56c-23.61-5.37-34.08-16.37-34.08-34.88c0-23.61,19.86-39.98,49.64-39.98c18.25,0,28.71,6.17,32.74,8.05
	c2.68,0.8,5.1-1.07,5.9-5.64h15.83v41.32h-19.05c0,0-0.54-3.49-0.81-5.1c-1.07-10.73-11.54-18.78-26.83-18.78
	c-14.22,0-21.47,4.03-21.47,11.27c0,5.9,3.49,8.86,15.56,11.54l28.98,6.17c22.27,4.83,32.2,16.64,32.2,34.88
	C502.33,175.76,481.4,190.52,450.28,190.52"/>
<path class="st0" d="M581.23,90.42c-15.03,0-21.74,9.93-23.08,19.86c-1.07,5.9-0.81,33.27,0.54,38.64
	c2.42,11,9.66,20.13,23.35,20.13s23.61-12.08,23.61-38.64c-0.27-26.57-9.39-39.98-24.42-39.98 M593.57,190.52
	c-16.37,0-31.13-7.25-35.69-16.64v31.93c0,6.71,2.68,9.66,9.39,9.66h16.91v18.52h-85.06v-18.52h12.08c5.64,0,8.05-1.61,8.05-8.32
	V100.08c0-6.98-3.22-9.93-9.39-9.93h-9.39V71.37h55.55v17.17c5.9-13.42,20.93-21.2,40.52-21.2c30.86,0,52.6,22.81,52.6,60.11
	c0.54,42.67-25.22,63.06-55.55,63.06"/>
<path class="st0" d="M751.36,123.43c-10.73,0-20.39-5.9-20.39-16.1c0-5.9,2.95-8.86,6.17-10.73c-0.81-0.8-2.15-4.56-8.59-4.56
	c-13.15,0-24.42,16.37-24.42,36.49v30.86c0,4.29,2.68,9.93,12.08,9.93h15.03v19.32h-85.33v-19.32h11.81c5.9,0,8.32-2.95,8.32-9.12
	v-59.04c0-5.9-2.95-10.73-9.39-10.73h-11.27V71.65h57.43v20.93c6.44-16.37,20.93-24.96,37.84-24.96c19.05,0,33.27,11.54,33.27,30.05
	c0,15.3-8.59,25.76-22.54,25.76"/>
<path class="st0" d="M861.38,111.89c-0.54-13.15-5.9-25.22-21.2-25.22c-14.49,0-21.2,10.73-22.27,24.96c0,1.34-0.27,4.03-0.27,4.03
	h43.74L861.38,111.89L861.38,111.89L861.38,111.89z M817.1,133.09c0,0,0,4.83,0.27,8.05c1.07,16.91,10.47,29.25,28.44,29.25
	s27.64-11.54,28.18-25.76h26.83c-1.34,25.49-20.39,46.42-60.11,46.42s-66.82-23.08-66.82-62.26c0-35.69,27.64-62.79,66.55-62.79
	s60.38,24.96,61.18,57.43c0,4.29,0.27,6.71,0.27,9.93h-84.8L817.1,133.09L817.1,133.09L817.1,133.09z"/>
<path class="st0" d="M968.45,190.52c-17.98,0-30.32-5.37-35.96-8.32c-4.03-1.07-6.98,2.68-7.78,6.17h-17.17v-45.08h19.59
	c0,0,0.27,4.03,0.81,5.64c1.07,13.42,14.76,22.27,31.66,22.27c13.95,0,20.93-5.1,20.93-12.34c0-6.17-3.49-10.47-18.25-13.69
	l-20.66-4.56c-23.61-5.37-34.08-16.37-34.08-34.88c0-23.61,19.86-39.98,49.64-39.98c18.25,0,28.71,6.17,32.74,8.05
	c2.68,0.8,5.1-1.07,5.9-5.64h15.83v41.32H992.6c0,0-0.54-3.49-0.81-5.1c-1.07-10.73-11.54-18.78-26.83-18.78
	c-14.22,0-21.47,4.03-21.47,11.27c0,5.9,3.49,8.86,15.56,11.54l28.98,6.17c22.27,4.83,32.2,16.64,32.2,34.88
	C1020.5,175.76,999.57,190.52,968.45,190.52"/>
<path class="st0" d="M1086.79,190.52c-17.98,0-30.32-5.37-35.96-8.32c-4.03-1.07-6.98,2.68-7.78,6.17h-17.17v-45.08h19.59
	c0,0,0.27,4.03,0.81,5.64c1.07,13.42,14.76,22.27,31.66,22.27c13.95,0,20.93-5.1,20.93-12.34c0-6.17-3.49-10.47-18.25-13.69
	l-20.66-4.56c-23.61-5.37-34.08-16.37-34.08-34.88c0-23.61,19.86-39.98,49.64-39.98c18.25,0,28.71,6.17,32.74,8.05
	c2.68,0.8,5.1-1.07,5.9-5.64h15.83v41.32h-19.05c0,0-0.54-3.49-0.81-5.1c-1.07-10.73-11.54-18.78-26.83-18.78
	c-14.22,0-21.47,4.03-21.47,11.27c0,5.9,3.49,8.86,15.56,11.54l28.98,6.17c22.27,4.83,32.2,16.64,32.2,34.88
	c0,26.3-20.93,41.06-51.79,41.06"/>
<path class="st0" d="M1210.77,86.4c-14.22,0-25.22,10.47-25.22,41.32s10.47,43.2,25.22,43.2s24.96-10.73,24.96-42.67
	s-10.47-41.86-24.96-41.86 M1209.96,191.04c-41.59,0-68.96-28.71-68.96-61.99c0-37.3,29.25-63.06,70.84-63.06S1280,91.75,1280,126.9
	s-28.18,64.13-70.04,64.13"/>
</svg>
