<?xml version="1.0" encoding="UTF-8"?>
<svg id="Livello_1" data-name="Livello 1" xmlns="http://www.w3.org/2000/svg" viewBox="0 0 1280 414.2">
  <defs>
    <style>
      .cls-1 {
        fill: #fff;
        stroke-width: 0px;
      }
    </style>
  </defs>
  <polyline class="cls-1" points="290.71 220.63 312.68 209.2 312.68 36.38 296.06 36.38 255.44 90.27 250.89 90.27 253.44 30.22 429.51 30.22 432.07 90.27 427.22 90.27 387.46 36.38 370.41 36.38 370.41 208.82 392.53 220.5 392.53 226.32 290.71 226.32"/>
  <path class="cls-1" d="m449.73,212.99V21.5l-17.07-6.83v-3.57L494.41,0h6.51v90.61l1.71-1.45c13.65-11.95,33.28-19.63,52.91-19.63,27.02,0,38.96,15.25,38.96,43.69v99.76l14.44,7.86v5.8h-80.71v-5.77l14.51-7.89v-100.08c0-15.65-6.83-21.9-19.63-21.9-8.53,0-15.89,2.67-21.33,7.04v115.2l14.22,7.86v5.54h-80.77v-5.51"/>
  <path class="cls-1" d="m655.91,154.19c1.68,31.65,15.86,56.14,49.46,56.14,16.24,0,27.78-7.54,38.65-13.26v6.23c-8.4,11.48-29.69,27.62-59.37,27.62-52.09,0-78.69-28.95-78.69-79.08s29.12-79.52,76.17-79.52c44.24,0,67.2,22.12,67.2,80.37v1.51m-94.27-7.29l45.82-2.8c0-39.21-6.72-65.24-20.16-65.24-14.28,0-25.66,30.23-25.66,68.04"/>
  <path class="cls-1" d="m0,303.02c0-83.34,55.16-113.02,116.62-113.02,26.09,0,50.67,4.19,64.46,9.89l1.2,58.16h-5.86l-36.08-56.28c-6.18-2.65-12.04-3.69-22.83-3.69-32.68,0-49.37,37.74-48.85,99.63.63,74.05,13.49,107.66,43.47,107.66,7.8,0,13.79-1.2,17.99-3v-79.28l-19.79-11.34v-6.64h95.64v7.08l-19.5,10.9v78.25c-16.18,6.3-43.46,12.29-72.25,12.29C44.37,413.63,0,381.25,0,303.01"/>
  <path class="cls-1" d="m202.61,264.12v-4.81l64.34-11.34,7.05.59v126.74c0,15.28,7.34,19.97,19.68,19.97,7.93,0,15.12-3.02,20.86-9.85v-113.66l-17.63-7.64v-4.99l64.33-11.34,6.47.58v145.27l17.33,7.28v4.62l-63.45,7.8-6.46-.59v-19.09h-1.76c-11.75,10.87-28.2,20.27-48.17,20.27-30.85,0-44.95-18.21-44.95-45.82v-96.35"/>
  <path class="cls-1" d="m609.13,247.7l5.29.59-.02,46.92h1.47c6.87-34.4,22.03-47.24,40.53-47.24,2.94,0,6.17.3,7.93,1.18v48c-2.94-.88-8.22-1.18-13.22-1.18-14.69,0-25.48,2.65-34.95,6.99v92.73l14.64,8.12v6.02h-83.4v-5.96l15.02-8.15v-126.52l-17.62-5.26v-4.29"/>
  <path class="cls-1" d="m770.63,251.66v-49.49l-17.62-6.17v-3.96l64.92-11.93,6.17.88v212.59l17.92,6.51v5.48l-64.04,8.63-4.99-.58v-17.59h-1.48c-9.4,9.4-22.32,17.92-42.59,17.92-34.96,0-60.52-26.73-60.52-81.37,0-57.58,29.67-85.9,74.61-85.9,12.93,0,22.62,2.35,27.61,4.99m-.09,136.11v-127.08c-4.11-2.64-7.08-5.91-17.74-5.53-17.36.61-28.08,26.82-28.08,73.54,0,42,7.71,65.48,30.84,64.71,6.46-.22,11.75-2.53,14.98-5.63"/>
  <path class="cls-1" d="m913.37,247.56l5.58.59v147.54l14.67,8.12v6.02h-83.4v-5.96l14.98-8.15v-124.24l-17.92-7.05v-4.93m71.98-51.77c0,15.57-13.23,27.32-28.5,27.32s-28.19-11.75-28.19-27.32,12.34-27.61,28.19-27.61,28.5,12.05,28.5,27.61"/>
  <path class="cls-1" d="m1115.52,395.71v-125.61l-17.63-6.17v-6.09l64.04-11.93,6.47.59v18.8h1.76c13.81-12.34,34.37-20.27,54.64-20.27,27.91,0,40.25,13.21,40.25,42.59v107.84l14.95,8.35v6.01h-83.4v-5.96l14.99-8.15v-105.15c0-16.15-7.05-22.62-20.27-22.62-8.52,0-15.54,2.16-22.03,7.01v120.71l14.69,8.14v6.01h-83.43v-5.96"/>
  <path class="cls-1" d="m1023,316.77v-21.06c0-31.75-6.92-42.13-26.55-42.13-2.3,0-4.32.28-6.64.58l-34.92,47.33h-4.9v-43.57c15-4.62,33.76-10.1,58.58-10.1,42.71,0,67.53,11.83,67.53,47.61v102.73l15.3,4.04v4.04c-6.06,3.76-18.19,7.22-31.46,7.22-21.06,0-31.17-6.93-35.78-18.47h-1.44c-8.95,12.12-21.64,19.05-41.55,19.05-25.4,0-42.71-15.87-42.71-43.29s16.44-40.98,49.92-47.32m34.62,64.35v-63.49l-10.68.86c-16.74,1.45-22.79,12.12-22.79,35.79,0,25.68,8.37,32.32,20.19,32.32,6.64,0,10.39-2.02,13.28-5.48"/>
  <path class="cls-1" d="m470.18,316.77v-21.06c0-31.75-6.92-42.13-26.55-42.13-2.3,0-4.32.28-6.63.58l-34.92,47.33h-4.91v-43.57c15.01-4.62,33.76-10.1,58.58-10.1,42.71,0,67.52,11.83,67.52,47.61v102.73l15.3,4.04v4.04c-6.06,3.76-18.18,7.22-31.45,7.22-21.06,0-31.17-6.93-35.78-18.47h-1.44c-8.95,12.12-21.64,19.05-41.55,19.05-25.4,0-42.7-15.87-42.7-43.29s16.44-40.98,49.92-47.32m34.63,64.35v-63.49l-10.68.86c-16.74,1.45-22.8,12.12-22.8,35.79,0,25.68,8.37,32.32,20.2,32.32,6.63,0,10.39-2.02,13.27-5.48"/>
</svg>