<?xml version="1.0" encoding="UTF-8"?>
<svg id="logo" xmlns="http://www.w3.org/2000/svg" viewBox="0 0 360 201">
  <defs>
    <style>
      .cls-1 {
        fill: #fff;
        stroke-width: 0px;
      }
    </style>
  </defs>
  <g>
    <path class="cls-1" d="m102.64,72.74v-7.13c0-.63-.28-1.21-.77-1.59-.49-.39-1.12-.53-1.73-.39l-10.91,2.57v-.98c0-1.16-.52-2.23-1.43-2.95-.91-.72-2.07-.98-3.2-.71l-8.3,1.95c-1.71.4-2.9,1.91-2.9,3.66v2.75l-11.84,2.78c-.92.22-1.57,1.03-1.57,1.98v62.21c0,.63.28,1.21.77,1.59.25.2.54.33.84.39,0,0,.19.05.42.05.16,0,.31-.02.47-.05l.95-.22c.84-.16,23.94-4.37,46.69,0l1.9.37v-66.28h-9.41Zm6.21,62.42c-8.12-1.4-16.17-1.8-23.22-1.73l15.44-3.63c.92-.22,1.57-1.03,1.57-1.98v-51.88h6.21v59.22Zm-45.64-59.55l13.41-3.15v-5.29c0-.26.18-.48.43-.54l8.3-1.95c.23-.05.4.04.47.11.08.06.21.2.21.44v5.02l13.41-3.15v59.41l-34.61,8.54s0,0,0,0l-1.62.38v-59.81Z"/>
    <polygon class="cls-1" points="92.86 99.31 69.11 104.9 69.11 108.06 92.86 102.48 92.86 99.31"/>
    <polygon class="cls-1" points="92.86 108.41 69.11 114 69.11 117.16 92.86 111.58 92.86 108.41"/>
  </g>
  <g>
    <path class="cls-1" d="m136.22,63.61h12.42c3.69,0,6.44.75,8.24,2.25,1.8,1.5,2.7,3.63,2.7,6.4,0,1.72-.49,3.22-1.48,4.49-.99,1.27-2.37,2.07-4.16,2.39v.05c1.97.32,3.54,1.15,4.71,2.48,1.16,1.34,1.74,2.91,1.74,4.73,0,2.74-1,4.88-3.01,6.43-2.01,1.55-4.86,2.32-8.55,2.32h-12.61v-31.53Zm12.04,13.57c4.01,0,6.02-1.54,6.02-4.63s-2.01-4.63-6.02-4.63h-7.02v9.27h7.02Zm.81,13.71c1.97,0,3.47-.41,4.49-1.22,1.02-.81,1.53-1.98,1.53-3.51s-.51-2.7-1.53-3.51c-1.02-.81-2.52-1.22-4.49-1.22h-7.84v9.46h7.84Z"/>
    <path class="cls-1" d="m189.54,91.61l-.33,3.44c-.86.38-1.85.57-2.96.57-1.37,0-2.46-.27-3.27-.81-.81-.54-1.35-1.45-1.6-2.72-.73,1.12-1.82,1.98-3.25,2.6-1.43.62-3.04.93-4.83.93-2.33,0-4.2-.54-5.64-1.62-1.43-1.08-2.15-2.63-2.15-4.63,0-1.88.78-3.46,2.34-4.75,1.56-1.29,3.89-2.21,6.98-2.75l6.07-1.05v-1.29c0-1.46-.43-2.62-1.29-3.46-.86-.84-2.05-1.27-3.58-1.27-3.15,0-5.21,1.43-6.16,4.3l-3.97-2.1c.57-1.91,1.74-3.42,3.51-4.54,1.77-1.11,3.94-1.67,6.52-1.67,3.09,0,5.54.72,7.36,2.15,1.82,1.43,2.72,3.54,2.72,6.31v10.8c0,.61.13,1.05.41,1.34.27.29.72.43,1.36.43.7,0,1.29-.06,1.77-.19Zm-10.61-1.1c1.31-.83,1.96-1.93,1.96-3.3v-2.87l-5.21,1.05c-1.66.32-2.88.76-3.68,1.34-.8.57-1.19,1.34-1.19,2.29,0,.89.31,1.57.93,2.03.62.46,1.5.69,2.65.69,1.72,0,3.23-.41,4.54-1.24Z"/>
    <path class="cls-1" d="m226.19,93.57c-.76.64-1.7,1.14-2.79,1.5-1.1.37-2.29.55-3.56.55-2.2,0-3.95-.55-5.26-1.65-1.31-1.1-1.98-2.81-2.01-5.14v-13.57h-12.23v12.71c0,1.15.29,2,.88,2.56.59.56,1.41.84,2.46.84,1.46,0,2.72-.53,3.77-1.58l1.24,3.77c-.73.64-1.65,1.14-2.75,1.5-1.1.37-2.27.55-3.51.55-2.17,0-3.9-.55-5.21-1.65-1.31-1.1-1.98-2.81-2.01-5.14v-13.57h-4.54v-4.01h4.54v-5.59l5.11-1.43v7.02h12.23v-5.59l5.11-1.43v7.02h8.31v4.01h-8.31v12.71c0,1.15.3,2,.91,2.56.6.56,1.45.84,2.53.84.8,0,1.5-.13,2.13-.38.62-.25,1.2-.64,1.74-1.15l1.19,3.73Z"/>
    <path class="cls-1" d="m252.13,85.11h-17.49c.29,2.1,1.03,3.7,2.25,4.8,1.21,1.1,2.77,1.65,4.68,1.65,1.56,0,2.86-.28,3.89-.84,1.03-.56,1.74-1.36,2.13-2.41l4.25,1.77c-1.78,3.7-5.21,5.54-10.27,5.54-3.76,0-6.7-1.1-8.81-3.3-2.12-2.2-3.18-5.24-3.18-9.13s1.02-6.97,3.06-9.15c2.04-2.18,4.9-3.27,8.6-3.27,3.5,0,6.23,1.07,8.17,3.2,1.94,2.13,2.91,4.97,2.91,8.5,0,.92-.06,1.8-.19,2.63Zm-15.36-8.65c-1.13,1.08-1.84,2.66-2.13,4.73h12.9c-.26-2.01-.93-3.57-2.03-4.68-1.1-1.11-2.52-1.67-4.28-1.67-1.85,0-3.34.54-4.47,1.62Z"/>
    <path class="cls-1" d="m273.68,71.26l-.81,4.68c-.73-.41-1.74-.62-3.01-.62-1.02,0-1.98.27-2.89.81-.91.54-1.66,1.35-2.25,2.44-.59,1.08-.88,2.39-.88,3.92v12.66h-5.11v-23.89h4.35l.43,4.3c1.34-3.18,3.85-4.78,7.55-4.78,1.11,0,1.99.16,2.63.48Z"/>
    <path class="cls-1" d="m289.54,97.96c-1.05,2.74-2.25,4.67-3.58,5.78-1.34,1.11-3.09,1.67-5.26,1.67-1.24,0-2.32-.15-3.22-.45-.91-.3-1.71-.79-2.41-1.46l1.48-3.92c.96,1.15,2.26,1.72,3.92,1.72.96,0,1.76-.25,2.41-.74.65-.49,1.23-1.39,1.74-2.7l1.05-2.58-2.48-5.92-7.45-18.11h5.73l5.26,15,1.39,4.49,1.62-4.92,4.97-14.57h5.3l-10.46,26.71Z"/>
    <path class="cls-1" d="m156.46,110.16c1.99,1.75,2.99,4.16,2.99,7.21s-1,5.45-2.99,7.19c-1.99,1.74-4.69,2.6-8.1,2.6h-7.02v11.9h-5.11v-31.53h12.14c3.41,0,6.11.88,8.1,2.63Zm-3.94,11.3c1.08-.91,1.62-2.27,1.62-4.08,0-3.66-2.2-5.49-6.59-5.49h-6.21v10.94h6.21c2.23,0,3.89-.45,4.97-1.36Z"/>
    <path class="cls-1" d="m187.87,135.53l-.33,3.44c-.86.38-1.85.57-2.96.57-1.37,0-2.46-.27-3.27-.81-.81-.54-1.35-1.45-1.6-2.72-.73,1.12-1.82,1.98-3.25,2.6-1.43.62-3.04.93-4.83.93-2.33,0-4.2-.54-5.64-1.62-1.43-1.08-2.15-2.63-2.15-4.63,0-1.88.78-3.46,2.34-4.75,1.56-1.29,3.89-2.21,6.98-2.75l6.07-1.05v-1.29c0-1.46-.43-2.62-1.29-3.46-.86-.84-2.05-1.27-3.58-1.27-3.15,0-5.21,1.43-6.16,4.3l-3.97-2.1c.57-1.91,1.74-3.42,3.51-4.54,1.77-1.11,3.94-1.67,6.52-1.67,3.09,0,5.54.72,7.36,2.15,1.82,1.43,2.72,3.54,2.72,6.31v10.8c0,.61.14,1.05.41,1.34.27.29.72.43,1.36.43.7,0,1.29-.06,1.77-.19Zm-10.61-1.1c1.31-.83,1.96-1.93,1.96-3.3v-2.87l-5.21,1.05c-1.66.32-2.88.76-3.68,1.34-.8.57-1.19,1.34-1.19,2.29,0,.89.31,1.57.93,2.03.62.46,1.5.69,2.65.69,1.72,0,3.23-.41,4.54-1.24Z"/>
    <path class="cls-1" d="m194.92,138.3c-1.86-.83-3.27-2.09-4.23-3.77l3.44-2.96c.61,1.37,1.54,2.37,2.82,3.01,1.27.64,2.8.96,4.59.96,1.62,0,2.88-.26,3.77-.79.89-.53,1.34-1.22,1.34-2.08,0-.76-.41-1.38-1.24-1.84-.83-.46-2.26-.9-4.3-1.31-3.54-.67-6.02-1.56-7.45-2.68-1.43-1.11-2.15-2.69-2.15-4.73,0-1.31.4-2.52,1.19-3.66.8-1.13,1.95-2.04,3.46-2.72,1.51-.68,3.3-1.03,5.37-1.03,2.64,0,4.76.44,6.35,1.31,1.59.88,2.82,2.24,3.68,4.08l-3.63,2.68c-.57-1.4-1.38-2.43-2.41-3.08-1.04-.65-2.35-.98-3.94-.98-1.43,0-2.62.29-3.56.88-.94.59-1.41,1.27-1.41,2.03,0,.86.42,1.55,1.27,2.05.84.51,2.38.97,4.61,1.39,3.38.61,5.76,1.47,7.17,2.58,1.4,1.12,2.1,2.68,2.1,4.68,0,2.13-.92,3.87-2.77,5.21-1.85,1.34-4.4,2.01-7.64,2.01-2.42,0-4.56-.41-6.43-1.24Z"/>
    <path class="cls-1" d="m220.19,138.3c-1.86-.83-3.27-2.09-4.23-3.77l3.44-2.96c.61,1.37,1.54,2.37,2.82,3.01,1.27.64,2.8.96,4.59.96,1.62,0,2.88-.26,3.77-.79.89-.53,1.34-1.22,1.34-2.08,0-.76-.41-1.38-1.24-1.84-.83-.46-2.26-.9-4.3-1.31-3.54-.67-6.02-1.56-7.45-2.68-1.43-1.11-2.15-2.69-2.15-4.73,0-1.31.4-2.52,1.19-3.66.8-1.13,1.95-2.04,3.46-2.72,1.51-.68,3.3-1.03,5.37-1.03,2.64,0,4.76.44,6.35,1.31,1.59.88,2.82,2.24,3.68,4.08l-3.63,2.68c-.57-1.4-1.38-2.43-2.41-3.08-1.04-.65-2.35-.98-3.94-.98-1.43,0-2.62.29-3.56.88-.94.59-1.41,1.27-1.41,2.03,0,.86.42,1.55,1.27,2.05.84.51,2.38.97,4.61,1.39,3.38.61,5.76,1.47,7.17,2.58,1.4,1.12,2.1,2.68,2.1,4.68,0,2.13-.92,3.87-2.77,5.21-1.85,1.34-4.4,2.01-7.64,2.01-2.42,0-4.56-.41-6.43-1.24Z"/>
  </g>
</svg>