<?xml version="1.0" encoding="UTF-8"?>
<svg id="logo" xmlns="http://www.w3.org/2000/svg" viewBox="0 0 360 201">
  <defs>
    <style>
      .cls-1 {
        fill: #fff;
        stroke-width: 0px;
      }
    </style>
  </defs>
  <path class="cls-1" d="m166.78,82.28c-3.08-1.78-6.62-2.67-10.6-2.67s-7.52.89-10.6,2.67c-2.07,1.19-3.8,2.72-5.26,4.52-1.44-1.8-3.14-3.33-5.15-4.52-3-1.78-6.44-2.67-10.32-2.67-3.03,0-5.73.43-8.09,1.28-2.37.85-4.41,2.07-6.14,3.67-1.73,1.59-3.15,3.45-4.27,5.58l8.21,3.51c.85-1.7,2.05-3.1,3.59-4.19,1.54-1.09,3.51-1.63,5.9-1.63,2.18,0,4.16.49,5.94,1.47,1.78.98,3.19,2.4,4.23,4.27.77,1.39,1.26,2.98,1.45,4.78h-30.12c0,4.78.85,8.9,2.55,12.36s3.97,6.1,6.82,7.93c2.85,1.83,6.05,2.75,9.61,2.75,3.93,0,7.43-.89,10.49-2.67,2.08-1.21,3.83-2.76,5.31-4.6,1.49,1.84,3.26,3.39,5.38,4.6,3.11,1.78,6.66,2.67,10.64,2.67s7.44-.89,10.52-2.67c3.08-1.78,5.47-4.24,7.18-7.37,1.7-3.14,2.55-6.75,2.55-10.84s-.86-7.71-2.59-10.84c-1.73-3.14-4.13-5.59-7.22-7.37Zm-32.29,25.27c-.85,1.94-2.1,3.41-3.75,4.43-1.65,1.01-3.61,1.52-5.9,1.52s-4.03-.55-5.54-1.64c-1.52-1.09-2.68-2.75-3.51-4.98-.17-.45-.3-.94-.43-1.44h19.75c-.19.73-.34,1.49-.62,2.11Zm31.65-.48c-.96,1.89-2.29,3.38-3.99,4.47-1.7,1.09-3.64,1.63-5.82,1.63s-4.21-.54-5.94-1.63c-1.73-1.09-3.08-2.58-4.07-4.47-.98-1.89-1.48-4.08-1.48-6.58s.48-4.7,1.44-6.62c.96-1.91,2.29-3.4,3.99-4.46,1.7-1.06,3.67-1.59,5.9-1.59s4.2.55,5.9,1.63c1.7,1.09,3.04,2.58,4.03,4.47.98,1.89,1.47,4.08,1.47,6.58s-.48,4.69-1.44,6.58Z"/>
  <path class="cls-1" d="m291.05,84.04c-2.63-2.95-6.37-4.43-11.2-4.43-3.14,0-5.85.79-8.13,2.35-1.54,1.06-2.82,2.47-3.88,4.19l-.42-5.58h-8.37v39.87h8.93v-20.81c0-3.77.82-6.67,2.47-8.69,1.65-2.02,3.96-3,6.94-2.95,1.76,0,3.28.35,4.59,1.04,1.3.69,2.31,1.9,3.03,3.63.72,1.73,1.08,4.19,1.08,7.37v20.41h8.93v-22.8c0-6.11-1.32-10.64-3.95-13.6Z"/>
  <path class="cls-1" d="m252.96,102.65h4.7c0-4.78-.85-8.9-2.55-12.36s-3.97-6.1-6.82-7.93c-2.85-1.83-6.05-2.75-9.61-2.75-3.93,0-7.43.89-10.49,2.67s-5.46,4.24-7.22,7.37c-1.75,3.14-2.63,6.75-2.63,10.84s.86,7.71,2.59,10.84c1.73,3.14,4.09,5.59,7.1,7.37,3,1.78,6.44,2.67,10.32,2.67,3.03,0,5.73-.43,8.09-1.28,2.37-.85,4.41-2.07,6.14-3.67,1.73-1.59,3.15-3.45,4.27-5.58l-8.21-3.51c-.85,1.7-2.05,3.1-3.59,4.19-1.54,1.09-3.51,1.63-5.9,1.63-2.18,0-4.16-.49-5.94-1.47-1.78-.98-3.19-2.4-4.23-4.27-.77-1.39-1.26-2.98-1.45-4.78h25.41Zm-24.86-7.1c.19-.73.34-1.49.62-2.11.85-1.94,2.1-3.41,3.75-4.43,1.65-1.01,3.61-1.52,5.9-1.52s4.03.55,5.54,1.64c1.52,1.09,2.68,2.75,3.51,4.98.17.45.3.94.43,1.44h-19.75Z"/>
  <path class="cls-1" d="m208.67,82.2c-2.68-1.73-5.83-2.59-9.45-2.59-3.35,0-6.23.86-8.65,2.59-1.61,1.15-2.94,2.63-4.05,4.4l-.46-6.03h-8.37v50.79h8.93v-16.82c1.09,1.7,2.38,3.15,3.95,4.26,2.42,1.73,5.3,2.59,8.65,2.59,3.61,0,6.76-.86,9.45-2.59,2.68-1.73,4.78-4.16,6.3-7.29,1.52-3.14,2.27-6.8,2.27-11s-.76-7.93-2.27-11.04c-1.52-3.11-3.62-5.53-6.3-7.25Zm-2.07,24.92c-.98,1.91-2.3,3.41-3.95,4.5-1.65,1.09-3.54,1.63-5.66,1.63s-3.82-.54-5.38-1.63c-1.57-1.09-2.79-2.59-3.67-4.5-.88-1.91-1.32-4.12-1.32-6.62s.44-4.7,1.32-6.62c.88-1.91,2.11-3.4,3.71-4.46,1.59-1.06,3.4-1.59,5.42-1.59,2.18,0,4.09.53,5.74,1.59,1.65,1.06,2.94,2.55,3.87,4.46.93,1.91,1.4,4.12,1.4,6.62s-.49,4.7-1.47,6.62Z"/>
  <path class="cls-1" d="m95.98,82.2c-2.68-1.73-5.83-2.59-9.45-2.59-3.35,0-6.23.86-8.65,2.59-1.56,1.12-2.86,2.55-3.95,4.25v-16.8h-8.93v50.79h8.45l.39-6.03c1.1,1.77,2.43,3.25,4.04,4.4,2.42,1.73,5.3,2.59,8.65,2.59,3.61,0,6.76-.86,9.45-2.59,2.68-1.73,4.78-4.16,6.3-7.29,1.52-3.14,2.27-6.8,2.27-11s-.76-7.93-2.27-11.04c-1.52-3.11-3.62-5.53-6.3-7.25Zm-2.07,24.92c-.98,1.91-2.3,3.41-3.95,4.5-1.65,1.09-3.54,1.63-5.66,1.63s-3.81-.54-5.38-1.63c-1.57-1.09-2.79-2.59-3.67-4.5-.88-1.91-1.32-4.12-1.32-6.62s.44-4.7,1.32-6.62c.88-1.91,2.11-3.4,3.71-4.46,1.59-1.06,3.4-1.59,5.42-1.59,2.18,0,4.09.53,5.74,1.59,1.65,1.06,2.94,2.55,3.87,4.46.93,1.91,1.4,4.12,1.4,6.62s-.49,4.7-1.47,6.62Z"/>
</svg>