<?xml version="1.0" encoding="UTF-8"?>
<svg id="logo" xmlns="http://www.w3.org/2000/svg" viewBox="0 0 360 201">
  <defs>
    <style>
      .cls-1 {
        fill: #fff;
        stroke-width: 0px;
      }
    </style>
  </defs>
  <g>
    <rect class="cls-1" x="57.5" y="116.89" width="24.64" height="4.64"/>
    <rect class="cls-1" x="57.5" y="126.17" width="24.64" height="4.64"/>
    <g>
      <polygon class="cls-1" points="47.5 67.58 47.5 92.22 61 92.22 57.04 96.18 60.32 99.46 69.88 89.9 60.32 80.34 57.04 83.62 61 87.58 52.14 87.58 52.14 72.22 87.5 72.22 87.5 81.98 92.14 81.98 92.14 67.58 47.5 67.58"/>
      <polygon class="cls-1" points="78.96 87.58 82.92 83.62 79.64 80.34 70.08 89.9 79.64 99.46 82.92 96.18 78.96 92.22 87.5 92.22 87.5 107.58 52.14 107.58 52.14 97.82 47.5 97.82 47.5 112.22 92.14 112.22 92.14 87.58 78.96 87.58"/>
    </g>
  </g>
  <g>
    <path class="cls-1" d="m116.79,112.25v-31.41h20.29v4.93h-15.03v7.74h12.41v4.93h-12.41v8.88h15.03v4.93h-20.29Z"/>
    <path class="cls-1" d="m162.04,96.89c-.09-.91-.3-1.87-.62-2.89-.32-1.02-.81-1.98-1.48-2.88s-1.57-1.64-2.7-2.23c-1.13-.58-2.57-.87-4.32-.87-2.21,0-4.07.48-5.58,1.45-.81.52-1.51,1.15-2.12,1.86v-2.63h-4.69v23.56h5.32v-12.11c0-1.44.16-2.62.48-3.54s.75-1.65,1.28-2.18c.53-.53,1.12-.91,1.78-1.12.65-.22,1.32-.33,1.99-.33,1.25,0,2.24.27,2.98.81.73.54,1.29,1.22,1.66,2.06.37.84.61,1.7.71,2.61.1.9.15,1.72.15,2.47v11.34h5.32v-13.15c0-.57-.05-1.3-.14-2.21Z"/>
    <path class="cls-1" d="m184.54,101.94h2.57c.2-2.82-.11-5.27-.94-7.35s-2.1-3.69-3.81-4.83c-1.71-1.14-3.78-1.71-6.23-1.71-2.31,0-4.35.52-6.11,1.57-1.76,1.05-3.13,2.52-4.12,4.42-.99,1.9-1.48,4.13-1.48,6.71,0,2.38.5,4.49,1.52,6.33,1.01,1.83,2.42,3.26,4.22,4.3s3.9,1.55,6.28,1.55,4.34-.59,6.23-1.77c1.88-1.18,3.27-2.83,4.18-4.95l-5.19-1.57c-.51,1.09-1.23,1.92-2.17,2.5-.94.57-2.05.86-3.35.86-2.01,0-3.53-.65-4.58-1.96-.82-1.03-1.31-2.39-1.49-4.08h14.46Zm-8.18-9.29c1.91,0,3.3.59,4.19,1.77.63.84,1.03,2.02,1.22,3.55h-11.58c.24-1.36.69-2.47,1.37-3.33,1.05-1.33,2.65-2,4.8-2Z"/>
    <path class="cls-1" d="m201.36,88.6c-.74.05-1.47.19-2.17.41s-1.35.53-1.93.93c-.68.42-1.27.96-1.76,1.6-.22.3-.42.61-.6.93v-3.78h-4.65v23.56h5.28v-11.97c0-.9.11-1.74.33-2.52.22-.78.56-1.47,1.01-2.08.46-.61,1.05-1.11,1.78-1.5.73-.44,1.54-.69,2.45-.76.91-.07,1.71,0,2.41.2v-4.91c-.7-.12-1.42-.15-2.16-.1Z"/>
    <path class="cls-1" d="m215.01,112.91c-2.91,0-5.27-.65-7.09-1.96-1.82-1.31-2.92-3.15-3.32-5.52l5.37-.83c.28,1.16.89,2.08,1.83,2.75s2.14,1,3.58,1c1.26,0,2.24-.25,2.93-.75.69-.5,1.04-1.19,1.04-2.06,0-.54-.13-.97-.38-1.3s-.81-.64-1.67-.95c-.86-.31-2.17-.69-3.95-1.16-1.98-.52-3.55-1.09-4.71-1.69-1.16-.6-2-1.32-2.51-2.15-.51-.83-.76-1.83-.76-3.01,0-1.47.39-2.75,1.16-3.84.77-1.09,1.85-1.93,3.23-2.52,1.38-.59,3.01-.88,4.89-.88s3.46.28,4.87.85c1.42.57,2.56,1.37,3.44,2.42.87,1.05,1.41,2.28,1.61,3.69l-5.37.96c-.13-1-.59-1.8-1.36-2.38-.78-.58-1.81-.91-3.11-.98-1.24-.07-2.23.11-2.99.56s-1.13,1.07-1.13,1.86c0,.45.15.84.46,1.16s.92.64,1.84.96c.92.32,2.3.71,4.13,1.18,1.88.48,3.38,1.03,4.5,1.65,1.13.62,1.94,1.36,2.44,2.21.5.86.75,1.9.75,3.12,0,2.37-.86,4.23-2.58,5.58s-4.11,2.03-7.14,2.03Z"/>
    <path class="cls-1" d="m249.26,96.89c-.09-.91-.3-1.87-.62-2.89-.32-1.02-.81-1.98-1.48-2.88s-1.57-1.64-2.7-2.23c-1.13-.58-2.57-.87-4.32-.87-2.21,0-4.07.48-5.58,1.45-.81.52-1.51,1.15-2.12,1.86v-10.49h-4.69v31.41h5.32v-12.11c0-1.44.16-2.62.48-3.54s.75-1.65,1.28-2.18c.53-.53,1.12-.91,1.78-1.12.65-.22,1.32-.33,1.99-.33,1.25,0,2.24.27,2.98.81.73.54,1.29,1.22,1.66,2.06.37.84.61,1.7.71,2.61.1.9.15,1.72.15,2.47v11.34h5.32v-13.15c0-.57-.05-1.3-.14-2.21Z"/>
    <path class="cls-1" d="m272.66,94.97c-.09-.86-.34-1.71-.76-2.54-.77-1.56-1.95-2.68-3.54-3.36s-3.44-1.03-5.53-1.03c-2.78,0-4.98.6-6.62,1.81-1.64,1.21-2.74,2.81-3.33,4.8l4.8,1.51c.39-1.21,1.08-2.06,2.07-2.55.99-.49,2.01-.74,3.08-.74,1.76,0,3.01.39,3.75,1.16.61.64.95,1.59,1.05,2.82-.94.14-1.87.27-2.76.4-1.49.21-2.87.44-4.14.69-1.27.25-2.38.52-3.33.83-1.25.42-2.27.96-3.05,1.63s-1.37,1.45-1.74,2.36c-.38.91-.57,1.93-.57,3.06,0,1.29.3,2.48.91,3.55.6,1.08,1.49,1.94,2.67,2.59,1.18.65,2.62.97,4.32.97,2.12,0,3.89-.4,5.31-1.19,1.09-.61,2.08-1.5,2.96-2.65v3.18h4.6v-14.46c0-1.02-.04-1.96-.13-2.83Zm-5.61,9.85c-.17.54-.51,1.11-1.01,1.72-.5.61-1.17,1.13-2.02,1.55-.84.42-1.86.63-3.05.63-.83,0-1.52-.13-2.08-.39-.56-.26-.99-.61-1.28-1.06-.29-.44-.44-.96-.44-1.54,0-.51.11-.95.34-1.33s.55-.71.97-1,.94-.55,1.55-.76c.62-.2,1.34-.39,2.16-.56.81-.17,1.79-.35,2.92-.53.72-.12,1.55-.25,2.45-.4,0,.4-.02.85-.04,1.37-.04.87-.19,1.63-.47,2.3Z"/>
    <path class="cls-1" d="m286.94,88.6c-.74.05-1.47.19-2.17.41s-1.35.53-1.93.93c-.68.42-1.27.96-1.76,1.6-.22.3-.42.61-.6.93v-3.78h-4.65v23.56h5.28v-11.97c0-.9.11-1.74.33-2.52.22-.78.56-1.47,1.01-2.08.46-.61,1.05-1.11,1.78-1.5.73-.44,1.54-.69,2.45-.76.91-.07,1.71,0,2.41.2v-4.91c-.7-.12-1.42-.15-2.16-.1Z"/>
    <path class="cls-1" d="m309.87,101.94h2.57c.2-2.82-.11-5.27-.94-7.35s-2.1-3.69-3.81-4.83c-1.71-1.14-3.78-1.71-6.23-1.71-2.31,0-4.35.52-6.11,1.57-1.76,1.05-3.13,2.52-4.12,4.42-.99,1.9-1.48,4.13-1.48,6.71,0,2.38.5,4.49,1.52,6.33,1.01,1.83,2.42,3.26,4.22,4.3s3.9,1.55,6.28,1.55,4.34-.59,6.23-1.77c1.88-1.18,3.27-2.83,4.18-4.95l-5.19-1.57c-.51,1.09-1.23,1.92-2.17,2.5-.94.57-2.05.86-3.35.86-2.01,0-3.53-.65-4.58-1.96-.82-1.03-1.31-2.39-1.49-4.08h14.46Zm-8.18-9.29c1.91,0,3.3.59,4.19,1.77.63.84,1.03,2.02,1.22,3.55h-11.58c.24-1.36.69-2.47,1.37-3.33,1.05-1.33,2.65-2,4.8-2Z"/>
  </g>
</svg>