<?xml version="1.0" encoding="UTF-8"?>
<svg id="logo" xmlns="http://www.w3.org/2000/svg" viewBox="0 0 360 201">
  <defs>
    <style>
      .cls-1 {
        fill: #fff;
        stroke-width: 0px;
      }
    </style>
  </defs>
  <g>
    <path class="cls-1" d="m118.49,117.33c-3.47,0-6.42-.63-8.84-1.88-2.42-1.25-4.6-3.09-6.52-5.52l4.89-4.89c1.21,1.75,2.65,3.12,4.33,4.11,1.67.98,3.8,1.47,6.39,1.47,2.42,0,4.36-.5,5.8-1.5s2.16-2.38,2.16-4.14c0-1.46-.38-2.65-1.13-3.57-.75-.92-1.75-1.68-2.98-2.29-1.23-.6-2.59-1.15-4.07-1.63-1.48-.48-2.97-1.02-4.45-1.63-1.48-.61-2.84-1.37-4.07-2.29-1.23-.92-2.23-2.11-2.98-3.57-.75-1.46-1.13-3.32-1.13-5.58,0-2.59.64-4.8,1.91-6.61,1.27-1.82,3-3.21,5.17-4.17,2.17-.96,4.6-1.44,7.27-1.44,2.88,0,5.46.56,7.74,1.69,2.28,1.13,4.13,2.57,5.55,4.32l-4.89,4.89c-1.25-1.42-2.56-2.48-3.92-3.17-1.36-.69-2.91-1.03-4.67-1.03-2.17,0-3.88.44-5.11,1.32-1.23.88-1.85,2.11-1.85,3.7,0,1.34.38,2.41,1.13,3.23.75.82,1.74,1.5,2.98,2.07,1.23.56,2.59,1.1,4.07,1.6,1.48.5,2.97,1.07,4.45,1.69,1.48.63,2.84,1.43,4.07,2.41,1.23.98,2.23,2.25,2.98,3.79.75,1.55,1.13,3.49,1.13,5.83,0,3.93-1.39,7.04-4.17,9.34-2.78,2.3-6.53,3.45-11.25,3.45Z"/>
    <path class="cls-1" d="m168.86,93.73c-1.28-2.36-3.01-4.24-5.2-5.64-2.19-1.4-4.65-2.1-7.37-2.1-2.26,0-4.28.49-6.08,1.47-1.22.67-2.26,1.51-3.13,2.51v-3.35h-6.9v42.62h6.9v-15.83c.85.98,1.87,1.8,3.07,2.45,1.8.98,3.84,1.47,6.14,1.47,2.72,0,5.17-.69,7.37-2.07,2.19-1.38,3.93-3.25,5.2-5.61,1.27-2.36,1.91-5,1.91-7.93s-.64-5.63-1.91-7.99Zm-6.27,12.69c-.73,1.38-1.73,2.46-3.01,3.23-1.28.77-2.75,1.16-4.42,1.16s-3.16-.39-4.45-1.16c-1.3-.77-2.3-1.85-3.01-3.23-.71-1.38-1.07-2.97-1.07-4.76s.35-3.38,1.07-4.76c.71-1.38,1.71-2.45,3.01-3.23,1.29-.77,2.78-1.16,4.45-1.16s3.14.39,4.42,1.16c1.27.77,2.28,1.85,3.01,3.23.73,1.38,1.1,2.97,1.1,4.76s-.37,3.39-1.1,4.76Z"/>
    <path class="cls-1" d="m190.32,117.33c-2.93,0-5.58-.7-7.96-2.1-2.38-1.4-4.27-3.29-5.67-5.67-1.4-2.38-2.1-5.04-2.1-7.96s.7-5.56,2.1-7.9c1.4-2.34,3.29-4.21,5.67-5.61,2.38-1.4,5.04-2.1,7.96-2.1s5.64.69,8.02,2.07c2.38,1.38,4.27,3.25,5.67,5.61,1.4,2.36,2.1,5,2.1,7.93s-.7,5.58-2.1,7.96c-1.4,2.38-3.29,4.27-5.67,5.67-2.38,1.4-5.06,2.1-8.02,2.1Zm0-6.64c1.71,0,3.23-.39,4.54-1.16,1.32-.77,2.34-1.85,3.07-3.23.73-1.38,1.1-2.95,1.1-4.7s-.38-3.3-1.13-4.64c-.75-1.34-1.78-2.39-3.07-3.17-1.3-.77-2.8-1.16-4.51-1.16s-3.17.39-4.48,1.16c-1.32.77-2.34,1.83-3.07,3.17-.73,1.34-1.1,2.88-1.1,4.64s.37,3.32,1.1,4.7c.73,1.38,1.76,2.46,3.07,3.23,1.32.77,2.81,1.16,4.48,1.16Z"/>
    <polygon class="cls-1" points="248.68 86.61 241.47 86.61 241.47 74.08 234.58 74.08 234.58 86.61 223.3 86.61 223.3 74.08 216.4 74.08 216.4 86.61 209.19 86.61 209.19 92.88 216.4 92.88 216.4 116.7 223.3 116.7 223.3 92.88 234.58 92.88 234.58 116.7 241.47 116.7 241.47 92.88 248.68 92.88 248.68 86.61"/>
    <path class="cls-1" d="m278.93,93.26c-1.23-2.26-2.93-4.03-5.08-5.33-2.15-1.29-4.63-1.94-7.43-1.94s-5.51.69-7.87,2.07c-2.36,1.38-4.23,3.25-5.61,5.61-1.38,2.36-2.07,5.03-2.07,7.99s.7,5.64,2.1,8.02c1.4,2.38,3.3,4.25,5.7,5.61,2.4,1.36,5.11,2.04,8.12,2.04,2.34,0,4.55-.44,6.64-1.32,2.09-.88,3.86-2.17,5.33-3.89l-4.39-4.45c-.92,1.05-2.04,1.84-3.35,2.38-1.32.54-2.75.81-4.29.81-1.8,0-3.38-.39-4.76-1.16-1.38-.77-2.44-1.87-3.2-3.29-.36-.68-.63-1.41-.82-2.19h22.44c.13-.63.22-1.2.28-1.72.06-.52.09-1.03.09-1.54,0-2.88-.62-5.45-1.85-7.71Zm-20.22,3.35c.71-1.36,1.71-2.41,3.01-3.17,1.29-.75,2.82-1.13,4.58-1.13s3.08.33,4.23,1c1.15.67,2.04,1.63,2.66,2.88.35.7.61,1.5.79,2.38h-16.01c.18-.71.42-1.37.73-1.97Z"/>
    <path class="cls-1" d="m308.1,71.57v18.39c-.87-1-1.9-1.84-3.1-2.5-1.78-.98-3.81-1.47-6.11-1.47-2.72,0-5.17.7-7.36,2.1-2.19,1.4-3.93,3.28-5.2,5.64-1.28,2.36-1.91,5.03-1.91,7.99s.64,5.57,1.91,7.93c1.27,2.36,3.01,4.23,5.2,5.61,2.19,1.38,4.65,2.07,7.36,2.07,2.3,0,4.35-.49,6.14-1.47,1.2-.65,2.22-1.47,3.07-2.45v3.3h6.9v-45.13h-6.9Zm-3.6,38.08c-1.28.77-2.77,1.16-4.48,1.16s-3.14-.39-4.42-1.16c-1.28-.77-2.28-1.85-3.01-3.23-.73-1.38-1.1-2.97-1.1-4.76s.37-3.38,1.1-4.76c.73-1.38,1.73-2.45,3.01-3.23,1.27-.77,2.75-1.16,4.42-1.16s3.21.39,4.48,1.16c1.27.77,2.27,1.85,2.98,3.23.71,1.38,1.07,2.97,1.07,4.76s-.36,3.39-1.07,4.76c-.71,1.38-1.7,2.46-2.98,3.23Z"/>
  </g>
  <g>
    <line class="cls-1" x1="51.39" y1="98.31" x2="55.2" y2="102.12"/>
    <rect class="cls-1" x="67.23" y="71.71" width="4.68" height="4.68"/>
    <rect class="cls-1" x="45" y="91.92" width="6.68" height="6.68"/>
    <rect class="cls-1" x="54.91" y="101.84" width="8.02" height="8.02"/>
    <rect class="cls-1" x="54.25" y="80.01" width="9.35" height="9.35"/>
    <circle class="cls-1" cx="69.57" cy="95.26" r="3.34"/>
    <circle class="cls-1" cx="80.17" cy="105.85" r="4.01"/>
    <circle class="cls-1" cx="69.57" cy="116.44" r="4.68"/>
    <circle class="cls-1" cx="58.92" cy="127.09" r="2.34"/>
    <line class="cls-1" x1="71.88" y1="97.58" x2="77.36" y2="103.05"/>
    <line class="cls-1" x1="72.78" y1="113.24" x2="77.37" y2="108.64"/>
  </g>
</svg>