<?xml version="1.0" standalone="no"?>
<!DOCTYPE svg PUBLIC "-//W3C//DTD SVG 20010904//EN"
 "http://www.w3.org/TR/2001/REC-SVG-20010904/DTD/svg10.dtd">
<svg version="1.0" xmlns="http://www.w3.org/2000/svg"
 width="700.000000pt" height="700.000000pt" viewBox="0 0 700.000000 700.000000"
 preserveAspectRatio="xMidYMid meet">
<metadata>
Created by potrace 1.14, written by Peter Selinger 2001-2017
</metadata>
<g transform="translate(0.000000,700.000000) scale(0.100000,-0.100000)"
fill="#000000" stroke="none">
<path d="M3280 6994 c-19 -2 -84 -9 -145 -14 -639 -62 -1264 -315 -1795 -726
-149 -115 -481 -446 -595 -594 -410 -532 -653 -1132 -727 -1795 -17 -155 -17
-575 0 -730 75 -673 332 -1300 748 -1820 114 -143 339 -372 484 -494 537 -451
1163 -717 1885 -803 142 -17 586 -17 730 0 682 79 1268 318 1802 734 138 107
389 351 512 498 451 538 717 1162 803 1885 16 139 16 595 0 730 -77 629 -275
1158 -620 1649 -234 333 -577 668 -917 896 -460 308 -968 495 -1535 566 -117
15 -552 27 -630 18z m563 -1659 c559 -73 1024 -362 1222 -760 53 -105 105
-268 105 -327 l0 -28 -228 0 -228 0 -23 73 c-112 350 -424 586 -876 663 -127
22 -377 29 -519 15 -367 -36 -626 -150 -837 -368 -161 -165 -266 -396 -299
-655 -16 -134 -13 -651 6 -776 56 -381 262 -680 577 -838 207 -105 403 -146
692 -147 206 0 305 10 460 49 399 100 669 344 769 695 25 86 46 237 46 324 l0
45 -565 0 -565 0 0 165 0 165 810 0 810 0 -2 -887 -3 -888 -167 -3 -167 -2 -5
32 c-4 29 -37 653 -36 701 0 43 -29 8 -77 -92 -60 -126 -142 -233 -239 -316
-225 -191 -495 -303 -844 -350 -122 -17 -415 -19 -545 -5 -405 45 -727 190
-976 439 -232 233 -367 513 -435 901 -22 127 -31 530 -15 682 74 712 473 1218
1117 1417 158 49 302 75 534 95 87 8 386 -4 503 -19z"/>
</g>
</svg>
