<?xml version="1.0" encoding="UTF-8"?>
<svg id="logo" xmlns="http://www.w3.org/2000/svg" viewBox="0 0 360 201">
  <defs>
    <style>
      .cls-1 {
        fill: #1c3aff;
      }

      .cls-1, .cls-2, .cls-3, .cls-4 {
        stroke-width: 0px;
      }

      .cls-2 {
        fill: #7c8dff;
      }

      .cls-3 {
        fill: #fff;
      }

      .cls-4 {
        fill: #0cf;
      }
    </style>
  </defs>
  <rect class="cls-3" width="360" height="201"/>
  <g>
    <path class="cls-1" d="m174,89.66c-1.73-3.14-4.13-5.59-7.22-7.37-3.08-1.78-6.62-2.67-10.6-2.67s-7.52.89-10.6,2.67c-2.06,1.19-3.8,2.68-5.26,4.47.72.89,1.37,1.86,1.95,2.9,1.73,3.14,2.59,6.75,2.59,10.84,0-2.5.48-4.7,1.44-6.62.96-1.91,2.29-3.4,3.99-4.46,1.7-1.06,3.67-1.59,5.9-1.59s4.2.55,5.9,1.63c1.7,1.09,3.04,2.58,4.03,4.47.98,1.89,1.47,4.08,1.47,6.58s-.48,4.69-1.44,6.58c-.96,1.89-2.29,3.38-3.99,4.47-1.7,1.09-3.64,1.63-5.82,1.63s-4.21-.54-5.94-1.63c-1.73-1.09-3.08-2.58-4.07-4.47-.98-1.89-1.48-4.08-1.48-6.58,0,4.09-.88,7.71-2.63,10.84-.57,1.01-1.21,1.95-1.91,2.82,1.48,1.83,3.27,3.35,5.38,4.56,3.11,1.78,6.66,2.67,10.64,2.67s7.44-.89,10.52-2.67c3.08-1.78,5.47-4.24,7.18-7.37,1.7-3.14,2.55-6.75,2.55-10.84s-.86-7.71-2.59-10.84Z"/>
    <path class="cls-4" d="m135.76,100.5c0-4.09.86-7.71,2.59-10.84.58-1.05,1.23-2.01,1.96-2.9-1.43-1.79-3.15-3.29-5.15-4.47-3-1.78-6.44-2.67-10.32-2.67-3.03,0-5.73.43-8.09,1.28-2.37.85-4.41,2.07-6.14,3.67-1.73,1.59-3.15,3.45-4.27,5.58l8.21,3.51c.85-1.7,2.05-3.1,3.59-4.19,1.54-1.09,3.51-1.63,5.9-1.63,2.18,0,4.16.49,5.94,1.47,1.78.98,3.19,2.4,4.23,4.27.77,1.39,1.26,2.98,1.45,4.78h-30.12c0,4.78.85,8.9,2.55,12.36,1.7,3.46,3.97,6.1,6.82,7.93,2.85,1.83,6.05,2.75,9.61,2.75,3.93,0,7.43-.89,10.49-2.67,2.07-1.21,3.83-2.73,5.31-4.56-.71-.87-1.35-1.8-1.92-2.82-1.75-3.14-2.63-6.75-2.63-10.84Zm-1.28,7.06c-.85,1.94-2.1,3.41-3.75,4.43-1.65,1.01-3.61,1.52-5.9,1.52s-4.03-.55-5.54-1.64c-1.52-1.09-2.68-2.75-3.51-4.98-.17-.45-.3-.94-.43-1.44h19.75c-.19.73-.34,1.49-.62,2.11Z"/>
    <path class="cls-1" d="m291.05,84.04c-2.63-2.95-6.37-4.43-11.2-4.43-3.14,0-5.85.79-8.13,2.35-1.54,1.06-2.82,2.47-3.88,4.19l-.42-5.58h-8.37v39.87h8.93v-20.81c0-3.77.82-6.67,2.47-8.69,1.65-2.02,3.96-3,6.94-2.95,1.76,0,3.28.35,4.59,1.04,1.3.69,2.31,1.9,3.03,3.63.72,1.73,1.08,4.19,1.08,7.37v20.41h8.93v-22.8c0-6.11-1.32-10.64-3.95-13.6Z"/>
    <path class="cls-1" d="m245.06,111.54c-1.54,1.09-3.51,1.63-5.9,1.63-2.18,0-4.16-.49-5.94-1.47-1.78-.98-3.19-2.4-4.23-4.27-.77-1.39-1.26-2.98-1.45-4.78h30.12c0-4.78-.85-8.9-2.55-12.36-1.7-3.46-3.97-6.1-6.82-7.93-2.85-1.83-6.05-2.75-9.61-2.75-3.93,0-7.43.89-10.49,2.67-3.06,1.78-5.46,4.24-7.22,7.37-1.75,3.14-2.63,6.75-2.63,10.84s.86,7.71,2.59,10.84c1.73,3.14,4.09,5.59,7.1,7.37,3,1.78,6.44,2.67,10.32,2.67,3.03,0,5.73-.43,8.09-1.28,2.37-.85,4.41-2.07,6.14-3.67,1.73-1.59,3.15-3.45,4.27-5.58l-8.21-3.51c-.85,1.7-2.05,3.1-3.59,4.19Zm-16.34-18.1c.85-1.94,2.1-3.41,3.75-4.43,1.65-1.01,3.61-1.52,5.9-1.52s4.03.55,5.54,1.64c1.52,1.09,2.68,2.75,3.51,4.98.17.45.3.94.43,1.44h-19.75c.19-.73.34-1.49.62-2.11Z"/>
    <path class="cls-1" d="m214.97,89.46c-1.52-3.11-3.62-5.53-6.3-7.25-2.68-1.73-5.83-2.59-9.45-2.59-3.35,0-6.23.86-8.65,2.59-1.61,1.15-2.94,2.63-4.05,4.4l-.46-6.03h-8.37v50.79h8.93v-16.82c1.09,1.7,2.38,3.15,3.95,4.26,2.42,1.73,5.3,2.59,8.65,2.59,3.61,0,6.76-.86,9.45-2.59,2.68-1.73,4.78-4.16,6.3-7.29,1.52-3.14,2.27-6.8,2.27-11s-.76-7.93-2.27-11.04Zm-8.37,17.66c-.98,1.91-2.3,3.41-3.95,4.5-1.65,1.09-3.54,1.63-5.66,1.63s-3.82-.54-5.38-1.63c-1.57-1.09-2.79-2.59-3.67-4.5-.88-1.91-1.32-4.12-1.32-6.62s.44-4.7,1.32-6.62c.88-1.91,2.11-3.4,3.71-4.46,1.59-1.06,3.4-1.59,5.42-1.59,2.18,0,4.09.53,5.74,1.59,1.65,1.06,2.94,2.55,3.87,4.46.93,1.91,1.4,4.12,1.4,6.62s-.49,4.7-1.47,6.62Z"/>
    <path class="cls-4" d="m102.28,89.46c-1.52-3.11-3.62-5.53-6.3-7.25-2.68-1.73-5.83-2.59-9.45-2.59-3.35,0-6.23.86-8.65,2.59-1.56,1.12-2.86,2.55-3.95,4.25v-16.8h-8.93v50.79h8.45l.39-6.03c1.1,1.77,2.43,3.25,4.04,4.4,2.42,1.73,5.3,2.59,8.65,2.59,3.61,0,6.76-.86,9.45-2.59,2.68-1.73,4.78-4.16,6.3-7.29,1.52-3.14,2.27-6.8,2.27-11s-.76-7.93-2.27-11.04Zm-8.37,17.66c-.98,1.91-2.3,3.41-3.95,4.5-1.65,1.09-3.54,1.63-5.66,1.63s-3.81-.54-5.38-1.63c-1.57-1.09-2.79-2.59-3.67-4.5-.88-1.91-1.32-4.12-1.32-6.62s.44-4.7,1.32-6.62c.88-1.91,2.11-3.4,3.71-4.46,1.59-1.06,3.4-1.59,5.42-1.59,2.18,0,4.09.53,5.74,1.59,1.65,1.06,2.94,2.55,3.87,4.46.93,1.91,1.4,4.12,1.4,6.62s-.49,4.7-1.47,6.62Z"/>
    <path class="cls-2" d="m144.85,100.5c0-4.09-.86-7.71-2.59-10.84-.58-1.04-1.23-2.01-1.95-2.9-.73.89-1.38,1.86-1.96,2.9-1.73,3.14-2.59,6.75-2.59,10.84s.88,7.71,2.63,10.84c.57,1.01,1.21,1.94,1.92,2.82.7-.87,1.34-1.8,1.91-2.82,1.75-3.14,2.63-6.75,2.63-10.84Z"/>
  </g>
</svg>