<?xml version="1.0" encoding="UTF-8"?>
<svg id="logo" xmlns="http://www.w3.org/2000/svg" viewBox="0 0 360 201">
  <defs>
    <style>
      .cls-1, .cls-2, .cls-3, .cls-4 {
        stroke-width: 0px;
      }

      .cls-2 {
        fill: #2d58a7;
      }

      .cls-3 {
        fill: #fff;
      }

      .cls-4 {
        fill: #00add3;
      }
    </style>
  </defs>
  <rect class="cls-3" width="360" height="201"/>
  <g>
    <g>
      <path class="cls-4" d="m72.75,131.46c.84,0,1.66-.12,2.45-.33,0-.05,0-.1,0-.15.44-5.32,2.13-10.63,4.22-15.47-2.98-.15-6.07-.52-9.07-1.06-1.96,5.41-3.26,10.85-3.62,15.04h0c1.21,1.41,3.76,1.96,6.01,1.96Z"/>
      <path class="cls-4" d="m79,98.22c-1.84,2.22-3.56,4.99-5.1,8,3.48.38,6.88.48,9.95.48,1.23-2.18,2.42-4.13,3.42-5.78,0,0-5.8-5.69-8.28-2.7Z"/>
      <path class="cls-4" d="m58.35,101.93c2.54-2.56,6.42-3.83,10.11-5.01,1.59-2.75,1.5-6.27.95-10.07-4.64,1.85-10.07,3.27-14.04,6.02-.08.24-2.05,6.35,2.98,9.06Z"/>
      <path class="cls-4" d="m77.89,67.43c-.42.73-.73,1.49-.94,2.29.04.03.08.05.12.08,4.38,3.04,8.14,7.16,11.28,11.39,1.62-2.51,3.48-4.99,5.45-7.33-3.71-4.4-7.77-8.25-11.21-10.65-1.83.34-3.58,2.27-4.71,4.22Z"/>
      <path class="cls-4" d="m103.55,89.46c-1.01-2.71-2.54-5.58-4.38-8.41-2.07,2.82-3.86,5.72-5.39,8.38,1.27,2.16,2.37,4.16,3.29,5.85,0,0,7.83-2.18,6.48-5.82Z"/>
      <path class="cls-2" d="m90.54,106.58c-1.91.05-4.19.12-6.69.13-3.07,0-6.47-.1-9.95-.48-5.25-.57-10.69-1.78-15.43-4.23-.04-.02-.08-.05-.13-.07-5.02-2.71-3.05-8.83-2.98-9.06-.1.07-.19.13-.29.2-.03.02-.06.04-.08.06-.27.2-.53.4-.78.61-.02.02-.04.04-.07.06-.24.2-.48.42-.7.64-.04.03-.07.07-.11.1-.21.21-.41.42-.61.64-.05.05-.09.11-.14.16-.18.21-.35.43-.52.66-.05.07-.09.13-.14.2-.16.23-.31.46-.45.7-.04.07-.08.13-.11.2-.14.25-.28.51-.41.78-.02.05-.05.11-.07.16-.13.29-.25.59-.36.91,0,.03-.02.05-.03.08-.11.34-.22.69-.3,1.05-1.03,4.37,1.81,8.37,5.32,10.01,3.8,1.78,9.17,3.37,14.83,4.38,3,.54,6.09.91,9.07,1.06,3.32.17,6.51.05,9.31-.42,3.83-.65,1.8-8.52,1.8-8.52Z"/>
      <path class="cls-2" d="m77.89,67.43c1.13-1.95,2.88-3.88,4.71-4.22-3.17-2.22-8.06-2.68-11.33.4-2.37,2.23-3.38,5.07-3.66,8.02,0,.02,0,.03,0,.05-.4,4.81,1.09,10.22,1.81,15.16.55,3.8.64,7.32-.95,10.07.06-.02.12-.04.19-.06,2.48-.81,4.85-1.56,6.66-2.64.02-.01.03-.02.05-.03.16-.1.32-.2.47-.3.05-.03.09-.07.14-.1.12-.09.24-.17.36-.26.07-.05.13-.11.19-.16.09-.08.19-.15.27-.23.08-.07.15-.15.22-.22.07-.07.14-.13.2-.21.09-.09.16-.19.24-.29.04-.06.09-.11.14-.17.12-.16.23-.33.33-.5.1-.17.19-.35.27-.53.03-.06.05-.13.08-.2.05-.12.09-.24.13-.36.03-.09.05-.18.08-.28.03-.1.06-.2.08-.3.03-.12.05-.23.07-.35.01-.08.03-.16.04-.25.02-.14.04-.29.05-.44,0-.06.01-.11.02-.17.01-.18.02-.37.02-.55,0-.02,0-.04,0-.06.03-2.11-.5-4.53-1.04-7.08-.01-.06-.03-.13-.04-.19-.82-3.79-1.66-7.79-.71-11.27.22-.79.52-1.56.94-2.29Z"/>
      <path class="cls-4" d="m110.66,69.72c.94,3.48.11,7.48-.71,11.26,1.59,2.75,4.68,4.43,8.25,5.86.71-4.94,2.21-10.35,1.81-15.16-.02-.02-4.4-5.01-9.34-1.96Z"/>
      <path class="cls-4" d="m130.77,103.89c-.42-.73-.93-1.38-1.51-1.96-.04.02-.09.05-.13.07-4.82,2.28-10.27,3.47-15.51,4.08,1.36,2.66,2.58,5.51,3.62,8.38,5.66-1.01,11.03-2.61,14.83-4.38.62-1.76-.18-4.24-1.3-6.19Z"/>
      <path class="cls-4" d="m97.07,106.58s-2.03,7.87,1.8,8.52c2.8.47,5.99.59,9.31.42-1.39-3.21-2.95-6.21-4.45-8.86-2.48.02-4.74-.03-6.66-.08Z"/>
      <path class="cls-2" d="m119.99,71.53c0-.11-.02-.22-.03-.33-.01-.11-.03-.23-.04-.34,0-.06-.02-.12-.02-.19-.02-.12-.04-.24-.06-.36-.01-.06-.02-.12-.03-.18-.02-.11-.04-.22-.06-.32-.02-.08-.03-.15-.05-.23-.02-.09-.04-.18-.06-.27-.02-.1-.05-.19-.07-.29-.02-.07-.04-.14-.06-.21-.03-.12-.07-.23-.11-.35-.02-.05-.03-.1-.05-.14-.05-.14-.09-.27-.14-.41-.01-.03-.02-.06-.03-.09-.06-.15-.12-.31-.19-.46,0-.01,0-.02-.02-.04-.07-.17-.15-.33-.23-.49,0,0,0,0,0,0-.33-.66-.72-1.3-1.19-1.91,0,0,0,0,0,0-.11-.14-.23-.28-.34-.42,0-.01-.02-.02-.03-.03-.11-.13-.23-.26-.35-.38-.02-.02-.04-.04-.05-.06-.14-.14-.28-.28-.43-.42-3.27-3.08-8.16-2.62-11.33-.4-3.44,2.41-7.5,6.25-11.21,10.65-1.97,2.33-3.83,4.82-5.45,7.33-1.8,2.79-3.3,5.61-4.29,8.27-1.35,3.64,6.48,5.82,6.48,5.82.91-1.68,1.99-3.69,3.23-5.85,1.53-2.66,3.32-5.55,5.39-8.38,3.12-4.26,6.89-8.37,11.37-11.25.04-.03.08-.05.13-.07,4.94-3.05,9.32,1.94,9.34,1.96,0-.05,0-.1-.01-.15Z"/>
      <path class="cls-2" d="m137.39,100.07c-.08-.34-.18-.67-.28-.99-.03-.08-.06-.17-.08-.25-.08-.22-.16-.43-.25-.63-.94-2.17-2.5-3.86-4.34-5.2-.05-.04-.1-.07-.16-.11-3.97-2.77-9.42-4.19-14.07-6.05-3.56-1.42-6.66-3.11-8.25-5.86-.01.06-.03.13-.04.19-.54,2.55-1.07,4.98-1.04,7.09,0,.02,0,.04,0,.06,0,.19.01.37.02.55,0,.06.01.11.02.17.01.15.03.3.05.44.01.08.03.16.04.25.02.12.04.24.07.35.02.1.05.2.08.3.03.09.05.19.08.28.04.12.09.24.13.36.03.07.05.14.08.2.08.18.17.36.27.53s.21.34.33.5c.04.06.09.11.14.17.08.1.16.2.24.29.06.07.13.14.2.2.07.07.15.15.22.22.09.08.18.16.27.23.06.05.13.11.19.16.12.09.24.18.36.26.05.03.09.07.14.1.15.1.31.2.47.3.02.01.03.02.05.03,1.81,1.08,4.18,1.83,6.66,2.64.06.02.12.04.19.06,3.69,1.18,7.57,2.46,10.11,5.02.58.58,1.09,1.23,1.51,1.96,1.13,1.95,1.92,4.43,1.3,6.19,3.51-1.64,6.35-5.64,5.32-10.01Z"/>
      <path class="cls-4" d="m112.4,131.13c-3.49-.92-6.53-3.64-9.4-6.25-3.18,0-6.18,1.84-9.2,4.21,3.92,3.09,7.87,7.09,12.23,9.15,1.59.65,6.72-1.67,6.37-7.11Z"/>
      <path class="cls-2" d="m120.86,129.49c-.36-4.18-1.67-9.63-3.62-15.04-1.04-2.87-2.26-5.73-3.62-8.38-1.52-2.96-3.21-5.67-5.02-7.85-2.47-2.99-8.28,2.7-8.28,2.7,1,1.63,2.18,3.57,3.39,5.73,1.5,2.66,3.06,5.66,4.45,8.86,2.09,4.84,3.78,10.15,4.22,15.47,0,.05,0,.1,0,.15.35,5.44-4.78,7.76-6.37,7.11.02,0,.03.01.05.02,2.69,1.24,5.67,1.78,8.78.84,4.3-1.29,6.34-5.75,6.01-9.61Z"/>
      <path class="cls-2" d="m102.86,124.75c-1.94-1.75-3.78-3.42-5.62-4.45-.02,0-.03-.02-.05-.03-.16-.09-.33-.18-.49-.26-.05-.02-.1-.05-.15-.07-.14-.06-.27-.12-.41-.18-.08-.03-.16-.06-.24-.09-.11-.04-.22-.08-.34-.12-.1-.03-.2-.06-.3-.08-.09-.02-.19-.05-.28-.07-.13-.03-.25-.04-.38-.06-.07-.01-.14-.03-.21-.03-.2-.02-.4-.03-.59-.03s-.4.01-.59.03c-.07,0-.14.02-.21.03-.13.02-.25.04-.38.06-.09.02-.19.05-.28.07-.1.03-.2.05-.3.08-.11.04-.22.08-.34.12-.08.03-.16.06-.24.09-.14.05-.27.12-.41.18-.05.02-.1.05-.15.07-.16.08-.33.16-.49.26-.02,0-.04.02-.05.03-1.84,1.03-3.68,2.7-5.61,4.45-.05.04-.1.09-.14.13-2.87,2.61-5.91,5.33-9.4,6.25-.79.21-1.61.33-2.45.33-2.25,0-4.8-.55-6.01-1.96-.27,3.13,1.03,6.67,3.83,8.57.65.44,1.37.79,2.18,1.04,0,0,0,0,.01,0,3.1.93,6.07.39,8.76-.84.02,0,.03-.02.05-.02,4.36-2.06,8.31-6.06,12.23-9.15,3.02-2.38,6.02-4.21,9.2-4.21-.05-.04-.09-.09-.14-.13Z"/>
    </g>
    <g>
      <path class="cls-1" d="m185.52,85.44c2.83,2.97,4.25,7.22,4.25,12.75s-1.42,9.78-4.25,12.75c-2.83,2.97-6.93,4.46-12.28,4.46h-15.81v-34.43h15.81c5.35,0,9.45,1.49,12.28,4.46Zm-8.27,19.93c1.04-1.51,1.56-3.9,1.56-7.17s-.52-5.66-1.56-7.17-2.82-2.27-5.32-2.27h-3.86v18.88h3.86c2.5,0,4.28-.76,5.32-2.27Z"/>
      <path class="cls-1" d="m223.41,85.13c3.03,3.11,4.54,7.47,4.54,13.07s-1.51,9.96-4.54,13.07c-3.03,3.11-7.23,4.67-12.62,4.67-3.55,0-6.62-.7-9.21-2.09-2.59-1.39-4.58-3.42-5.97-6.1-1.39-2.68-2.09-5.86-2.09-9.55s.69-6.87,2.09-9.55c1.39-2.68,3.38-4.71,5.97-6.1,2.59-1.39,5.66-2.09,9.21-2.09,5.39,0,9.6,1.56,12.62,4.67Zm-17.37,5.84c-1.04,1.58-1.56,3.99-1.56,7.22s.52,5.64,1.56,7.22c1.04,1.58,2.63,2.37,4.75,2.37s3.69-.78,4.72-2.35c1.02-1.56,1.54-3.98,1.54-7.25s-.51-5.68-1.54-7.25c-1.03-1.56-2.6-2.35-4.72-2.35s-3.7.79-4.75,2.37Z"/>
      <path class="cls-1" d="m275.26,115.41h-9.39v-13.77l.21-11.11h-.1l-7.56,24.88h-8.55l-7.46-24.88h-.16l.21,11.11v13.77h-9.39v-34.43h15.02l4.64,16.33,1.72,6.83h.1l1.72-6.83,4.64-16.33h14.34v34.43Z"/>
      <path class="cls-1" d="m310,107.43v7.98h-28.43v-34.43h27.75v7.98h-17.11v5.58h13.67v7.41h-13.67v5.48h17.79Z"/>
    </g>
  </g>
</svg>