<?xml version="1.0" encoding="UTF-8"?>
<svg id="logo" xmlns="http://www.w3.org/2000/svg" viewBox="0 0 360 201">
  <defs>
    <style>
      .cls-1 {
        fill: #1d1d1b;
      }

      .cls-1, .cls-2, .cls-3, .cls-4, .cls-5, .cls-6 {
        stroke-width: 0px;
      }

      .cls-2 {
        fill: #b9cacb;
      }

      .cls-3 {
        fill: #fff;
      }

      .cls-4 {
        fill: #ffce00;
      }

      .cls-5 {
        fill: #00aea5;
      }

      .cls-6 {
        fill: #0067b1;
      }
    </style>
  </defs>
  <rect class="cls-3" width="360" height="201"/>
  <g>
    <g>
      <path class="cls-1" d="m155.93,123.24v-39.44h-13.3v-5.52h33.34v5.52h-13.23v39.44h-6.81Z"/>
      <path class="cls-1" d="m186.69,124.01c-3.04,0-5.77-.7-8.19-2.09-2.42-1.39-4.34-3.34-5.75-5.84-1.41-2.51-2.12-5.43-2.12-8.77s.72-6.26,2.15-8.77c1.43-2.5,3.37-4.45,5.81-5.84,2.44-1.39,5.16-2.09,8.16-2.09s5.77.7,8.19,2.09c2.42,1.39,4.35,3.34,5.78,5.84,1.43,2.51,2.15,5.43,2.15,8.77s-.72,6.26-2.15,8.77c-1.44,2.51-3.37,4.45-5.81,5.84-2.44,1.39-5.18,2.09-8.22,2.09Zm0-5.84c1.63,0,3.14-.41,4.53-1.22,1.39-.81,2.52-2.02,3.37-3.63.86-1.61,1.28-3.61,1.28-6.01s-.42-4.4-1.25-6.01c-.84-1.61-1.95-2.82-3.34-3.63-1.39-.81-2.9-1.22-4.53-1.22s-3.14.41-4.53,1.22c-1.39.81-2.52,2.02-3.37,3.63-.86,1.61-1.28,3.61-1.28,6.01s.43,4.4,1.28,6.01c.86,1.61,1.97,2.82,3.34,3.63,1.37.81,2.87,1.22,4.5,1.22Z"/>
      <path class="cls-1" d="m207.06,123.24v-46.25h6.81v27.56l12.2-13.17h8.16l-13.55,14.45,15.54,17.41h-8.61l-13.74-16.32v16.32h-6.81Z"/>
      <path class="cls-1" d="m250.73,124.01c-3.13,0-5.9-.7-8.32-2.09-2.42-1.39-4.31-3.33-5.68-5.81-1.37-2.48-2.05-5.37-2.05-8.67s.67-6.27,2.02-8.8c1.35-2.53,3.23-4.5,5.65-5.91,2.42-1.41,5.24-2.12,8.45-2.12s5.84.7,8.16,2.09c2.31,1.39,4.11,3.24,5.4,5.56,1.28,2.31,1.93,4.86,1.93,7.64,0,.43-.01.89-.03,1.38-.02.49-.06,1.04-.1,1.64h-24.79c.21,3.08,1.23,5.43,3.05,7.03,1.82,1.61,3.93,2.41,6.33,2.41,1.93,0,3.54-.44,4.85-1.32,1.31-.88,2.28-2.06,2.92-3.56h6.81c-.86,3-2.56,5.5-5.11,7.51-2.55,2.01-5.71,3.02-9.47,3.02Zm0-27.81c-2.27,0-4.28.67-6.04,2.02-1.76,1.35-2.83,3.37-3.21,6.07h17.99c-.13-2.48-1.01-4.45-2.63-5.91-1.63-1.46-3.66-2.18-6.1-2.18Z"/>
      <path class="cls-1" d="m270.13,123.24v-31.86h6.04l.51,5.59c.98-1.97,2.43-3.52,4.34-4.66,1.9-1.13,4.1-1.7,6.58-1.7,3.85,0,6.88,1.2,9.09,3.6,2.2,2.4,3.31,5.97,3.31,10.73v18.31h-6.74v-17.6c0-6.17-2.53-9.25-7.58-9.25-2.53,0-4.62.9-6.26,2.7-1.65,1.8-2.47,4.37-2.47,7.71v16.44h-6.81Z"/>
    </g>
    <g>
      <path class="cls-2" d="m83.74,122.82c-1.95,1.95-4.54,3.03-7.3,3.03s-5.35-1.07-7.3-3.03c-1.95-1.95-3.03-4.54-3.03-7.3s1.07-5.35,3.03-7.3l-4.24-4.24c-3.08,3.08-4.78,7.19-4.78,11.55s1.7,8.46,4.78,11.54c3.09,3.08,7.18,4.78,11.55,4.78s8.46-1.7,11.55-4.78l9.37-9.37c3.59-3.6,5.16-8.53,4.64-13.33l-18.26,18.46Z"/>
      <path class="cls-6" d="m78.4,102.26l-9.37-9.37c-1.95-1.95-3.03-4.54-3.03-7.3s1.07-5.35,3.03-7.3c1.95-1.95,4.54-3.03,7.3-3.03s5.35,1.07,7.3,3.03l4.24-4.24c-3.08-3.08-7.18-4.78-11.55-4.78s-8.46,1.7-11.55,4.78c-3.08,3.08-4.78,7.19-4.78,11.55s1.7,8.46,4.78,11.54l9.37,9.37c3.15,3.15,7.34,4.78,11.56,4.78.58,0,1.15-.06,1.72-.13,0,0-8.76-8.62-9.04-8.9Z"/>
      <path class="cls-4" d="m98.96,78.17c4.03-4.02,10.58-4.02,14.6,0,4.03,4.03,4.03,10.58,0,14.61l4.24,4.24c3.08-3.08,4.78-7.19,4.78-11.55s-1.7-8.46-4.78-11.55c-6.37-6.36-16.72-6.36-23.09,0l-9.37,9.37c-3.56,3.56-5.14,8.44-4.67,13.19l18.28-18.32Z"/>
      <path class="cls-5" d="m117.92,103.86l-9.37-9.37c-3.57-3.57-8.47-5.15-13.24-4.66l18.36,18.27c4.03,4.03,4.03,10.58,0,14.61-1.95,1.95-4.54,3.03-7.3,3.03s-5.35-1.07-7.3-3.03l-4.24,4.24c3.08,3.08,7.18,4.78,11.55,4.78s8.46-1.7,11.55-4.78c6.37-6.37,6.37-16.73,0-23.09Z"/>
    </g>
  </g>
</svg>