<?xml version="1.0" encoding="UTF-8"?>
<svg id="logo" xmlns="http://www.w3.org/2000/svg" viewBox="0 0 360 201">
  <defs>
    <style>
      .cls-1 {
        fill: #fff;
        stroke-width: 0px;
      }
    </style>
  </defs>
  <path class="cls-1" d="m201.6,64.75v-9.27c0-.81-.37-1.57-1-2.07-.64-.5-1.46-.69-2.25-.5l-14.18,3.34v-1.28c0-1.5-.68-2.9-1.85-3.83-1.18-.93-2.69-1.27-4.15-.93l-10.79,2.54c-2.22.52-3.77,2.48-3.77,4.76v3.58l-15.39,3.62c-1.2.28-2.04,1.34-2.04,2.57v80.87c0,.81.37,1.57,1,2.07.33.26.7.42,1.09.51,0,0,.25.06.54.06.2,0,.41-.02.61-.07l1.24-.29c1.1-.21,31.12-5.68,60.7,0l2.47.48v-86.16h-12.23Zm8.07,81.15c-10.55-1.81-21.02-2.34-30.19-2.25l20.08-4.72c1.2-.28,2.04-1.34,2.04-2.57v-67.44h8.07v76.98Zm-59.34-77.42l17.43-4.1v-6.87c0-.34.23-.63.56-.71l10.79-2.54c.3-.07.51.06.62.14.1.08.28.26.28.57v6.53l17.43-4.1v77.23l-44.99,11.1s0,0,0,0l-2.11.5v-77.75Z"/>
  <polygon class="cls-1" points="188.89 99.3 158.01 106.56 158.01 110.68 188.89 103.41 188.89 99.3"/>
  <polygon class="cls-1" points="188.89 111.13 158.01 118.39 158.01 122.51 188.89 115.24 188.89 111.13"/>
</svg>