<?xml version="1.0" encoding="UTF-8"?>
<svg id="logo" xmlns="http://www.w3.org/2000/svg" viewBox="0 0 360 201">
  <defs>
    <style>
      .cls-1 {
        fill: #fff;
        stroke-width: 0px;
      }
    </style>
  </defs>
  <path class="cls-1" d="m217.64,73.83c-4.51-2.61-9.69-3.91-15.52-3.91s-11.01,1.3-15.52,3.91c-3.02,1.75-5.56,3.98-7.69,6.61-2.11-2.64-4.59-4.87-7.54-6.61-4.4-2.61-9.43-3.91-15.11-3.91-4.44,0-8.39.62-11.85,1.87-3.46,1.24-6.46,3.03-8.99,5.37-2.53,2.33-4.61,5.06-6.25,8.17l12.02,5.14c1.25-2.49,3-4.53,5.25-6.13,2.26-1.6,5.14-2.39,8.64-2.39,3.19,0,6.09.72,8.7,2.16,2.61,1.44,4.67,3.52,6.19,6.25,1.13,2.03,1.84,4.37,2.13,7h-44.09c0,7,1.24,13.03,3.74,18.09,2.49,5.06,5.82,8.93,9.98,11.61,4.17,2.69,8.85,4.03,14.07,4.03,5.76,0,10.88-1.3,15.35-3.91,3.04-1.77,5.61-4.04,7.77-6.73,2.18,2.69,4.78,4.96,7.87,6.73,4.55,2.61,9.75,3.91,15.58,3.91s10.9-1.3,15.41-3.91c4.51-2.6,8.01-6.21,10.51-10.8,2.49-4.59,3.74-9.88,3.74-15.87s-1.27-11.28-3.79-15.87c-2.53-4.59-6.05-8.19-10.57-10.8Zm-47.27,37c-1.24,2.84-3.07,5-5.49,6.48-2.41,1.48-5.29,2.22-8.64,2.22s-5.89-.8-8.11-2.39c-2.22-1.6-3.93-4.03-5.14-7.3-.24-.66-.44-1.37-.64-2.1h28.91c-.27,1.06-.5,2.18-.9,3.09Zm46.34-.7c-1.4,2.76-3.35,4.94-5.84,6.54-2.49,1.6-5.33,2.39-8.52,2.39s-6.17-.8-8.69-2.39c-2.53-1.6-4.51-3.77-5.95-6.54-1.44-2.76-2.16-5.97-2.16-9.63s.7-6.89,2.1-9.69c1.4-2.8,3.35-4.98,5.84-6.54,2.49-1.56,5.37-2.33,8.64-2.33s6.15.8,8.64,2.39c2.49,1.6,4.45,3.78,5.9,6.54,1.44,2.76,2.16,5.97,2.16,9.63s-.7,6.87-2.1,9.63Z"/>
</svg>