<?xml version="1.0" encoding="UTF-8"?>
<svg id="logo" xmlns="http://www.w3.org/2000/svg" viewBox="0 0 360 201">
  <defs>
    <style>
      .cls-1 {
        fill: #fff;
        stroke-width: 0px;
      }
    </style>
  </defs>
  <path class="cls-1" d="m186.58,119.47c2.96.5,6.26.69,9.71.63-1.92-4.23-4.09-8.17-6.11-11.6-2.17-.01-4.17-.06-5.94-.1,0,0-2.64,10.23,2.34,11.08Z"/>
  <path class="cls-1" d="m223.69,103.42c-4.89,2.01-10.18,3.24-15.39,3.99,1.72,3.44,3.26,7.1,4.57,10.77,5.09-1.04,9.9-2.41,13.87-3.96l.73-2.08c.45-1.27-.16-3.69-1.51-6.03-.59-1.02-1.37-1.91-2.28-2.69Z"/>
  <path class="cls-1" d="m145.22,134.94l1.44,1.68c.88,1.02,3.28,1.71,5.98,1.71,1.18,0,2.33-.23,3.46-.63.71-5.24,2.28-10.44,4.23-15.32-3.77-.23-7.72-.72-11.61-1.43-1.65,4.93-2.86,9.78-3.51,13.99Z"/>
  <path class="cls-1" d="m160.76,97.53c-1.92,2.32-3.73,5.09-5.41,8.11,4.17.41,8.12.5,11.47.5.56,0,1.1,0,1.63,0,1.09-1.87,2.13-3.58,3.06-5.09,0,0-7.54-7.4-10.76-3.52Z"/>
  <path class="cls-1" d="m135.18,100.29c.25.13.5.24.75.36,2.23-1.58,4.92-2.72,7.68-3.68l1.36-2.35c1.64-2.84,1.6-6.71,1.01-11-4.24,1.56-8.8,3-12.73,5.03l-.92,2.68c-.21.65-1.98,6.47,2.85,8.96Z"/>
  <path class="cls-1" d="m192.67,86.14c-1.05-2.82-2.53-5.77-4.31-8.73-2.7,3.77-5.03,7.63-6.99,11.09,1.07,1.88,2.03,3.64,2.88,5.19,0,0,10.18-2.83,8.42-7.56Z"/>
  <path class="cls-1" d="m161.4,58.71c-.59,1.02-.97,2.14-1.19,3.31,4.18,3.23,7.9,7.19,11.15,11.33,2.12-3.21,4.52-6.37,7.04-9.34-3.44-3.89-7.04-7.37-10.36-10.03l-2.17.41c-1.32.25-3.12,1.98-4.47,4.32Z"/>
  <path class="cls-1" d="m161.32,120.01c4.32.22,8.47.07,12.1-.55,4.97-.84,2.34-11.08,2.34-11.08-2.49.06-5.45.16-8.69.16-3.99,0-8.41-.13-12.93-.62-6.83-.75-13.9-2.32-20.06-5.49-.06-.03-.11-.06-.16-.09-6.53-3.52-3.97-11.48-3.87-11.78-.12.09-.25.17-.37.26-.04.03-.07.05-.11.08-.35.25-.68.52-1.01.79-.03.02-.06.05-.09.07-.32.27-.62.54-.91.83-.05.04-.09.09-.14.13-.27.27-.54.55-.79.84-.06.07-.12.14-.18.21-.24.28-.46.56-.68.86-.06.08-.12.17-.18.26-.21.3-.41.6-.59.91-.05.09-.1.17-.15.26-.19.33-.37.67-.53,1.02-.03.07-.06.14-.09.2-.17.38-.33.77-.47,1.18-.01.03-.02.07-.03.1-.15.44-.28.9-.39,1.37-1.34,5.68,2.35,10.88,6.91,13.01,4.94,2.31,11.92,4.38,19.28,5.7,3.9.7,7.91,1.18,11.79,1.37Z"/>
  <path class="cls-1" d="m147.05,95.83c.08-.03.16-.05.24-.08,3.22-1.05,6.3-2.03,8.65-3.43.02-.01.04-.03.07-.04.21-.13.41-.25.61-.39.06-.04.12-.09.18-.13.16-.11.31-.22.46-.34.09-.07.17-.14.25-.21.12-.1.24-.2.35-.3.1-.09.19-.19.29-.29.09-.09.18-.17.26-.27.11-.12.21-.25.32-.38.06-.07.12-.14.18-.22.15-.21.3-.42.42-.65s.24-.45.35-.69c.04-.09.07-.18.1-.26.06-.15.12-.31.17-.46.04-.12.07-.24.1-.36.04-.13.07-.26.1-.4.03-.15.06-.3.09-.46.02-.11.04-.21.06-.32.03-.19.05-.38.06-.57,0-.07.02-.14.02-.22.02-.24.03-.48.03-.72,0-.03,0-.05,0-.08.04-2.74-.65-5.9-1.36-9.22-.02-.08-.03-.16-.05-.24-1.07-4.92-2.16-10.12-.92-14.65.28-1.03.68-2.02,1.22-2.97,1.46-2.54,3.74-5.05,6.12-5.49-4.12-2.88-10.47-3.48-14.73.52-3.08,2.89-4.4,6.59-4.76,10.43,0,.02,0,.04,0,.07-.52,6.25,1.42,13.29,2.35,19.71.71,4.94.83,9.52-1.24,13.1Z"/>
  <path class="cls-1" d="m201.76,140.23c-.01-.27-.03-.55-.05-.82-2.49-1.14-4.82-2.9-7.04-4.81h-2.71c-3.28,0-6.61,1.97-10.04,4.62,3.48,2.89,6.99,6.12,10.72,8.51l2.78-.55s1.83-.39,3.52-1.54c2-1.36,2.92-3.13,2.81-5.41Z"/>
  <path class="cls-1" d="m210.47,118.64c-1.35-3.73-2.93-7.44-4.7-10.9-1.97-3.85-4.17-7.37-6.53-10.21-3.22-3.89-10.76,3.52-10.76,3.52,1.3,2.12,2.86,4.64,4.49,7.45,2,3.45,4.09,7.35,5.93,11.51,2.77,6.29,4.94,13.19,5.27,20.12,0,.06,0,.13,0,.19.22,7.55-8.24,9.24-8.28,9.24.06.03.12.06.19.09.13.06.25.12.38.17.14.06.28.12.42.18.07.03.15.06.22.09.15.06.3.11.44.17.08.03.15.06.23.08.14.05.27.1.41.14.09.03.19.06.28.09.12.04.23.07.35.1.12.04.25.07.37.1.09.02.18.05.27.07.15.04.31.07.46.11.06.01.13.03.19.04.18.04.37.07.55.1.04,0,.08.01.12.02.21.03.42.06.64.09.02,0,.03,0,.05,0,.23.03.47.05.7.06,0,0,0,0,0,0,.96.06,1.93.03,2.92-.1,0,0,.01,0,.02,0,.23-.03.46-.07.69-.11.02,0,.04,0,.07-.01.22-.04.43-.09.65-.14.04,0,.07-.01.11-.02.25-.06.5-.13.75-.21,5.59-1.68,8.25-7.48,7.81-12.49-.47-5.43-2.16-12.51-4.71-19.55Z"/>
  <path class="cls-1" d="m191.77,132.02c-2.52-2.27-4.91-4.45-7.3-5.78-.02-.01-.04-.02-.07-.04-.21-.12-.43-.23-.64-.33-.07-.03-.13-.06-.2-.09-.18-.08-.35-.16-.53-.23-.1-.04-.2-.08-.31-.11-.15-.05-.29-.11-.44-.15-.13-.04-.26-.07-.39-.11-.12-.03-.24-.07-.36-.09-.16-.04-.33-.06-.49-.08-.09-.01-.18-.03-.27-.04-.26-.03-.51-.04-.77-.04s-.52.02-.77.04c-.09.01-.18.03-.27.04-.16.02-.33.05-.49.08-.12.03-.24.06-.36.09-.13.03-.26.07-.39.11-.15.05-.29.1-.44.15-.1.04-.2.07-.31.11-.18.07-.35.15-.53.23-.07.03-.13.06-.2.09-.21.1-.43.21-.64.33-.02.01-.04.02-.07.04-2.39,1.33-4.78,3.51-7.3,5.78-.06.06-.12.11-.19.17-3.73,3.39-7.69,6.93-12.22,8.12-1.03.27-2.09.43-3.19.43-2.93,0-6.24-.72-7.81-2.55-.44,5.01,2.22,10.81,7.81,12.49,4.04,1.22,7.9.51,11.41-1.09.02,0,.04-.02.06-.03,5.67-2.67,10.8-7.87,15.9-11.89,3.92-3.09,7.83-5.48,11.96-5.48-.06-.06-.12-.11-.18-.17Z"/>
  <path class="cls-1" d="m203.08,73.91c1.64,2.84,5.01,4.74,9.02,6.38.77-4.46,1.8-9.12,2.01-13.54l-1.87-2.13s-2.72-3.01-6.01-3.01c-1.09,0-2.13.33-3.18,1-.23.15-.46.3-.69.46.26,2.73-.1,5.62-.65,8.5l1.36,2.35Z"/>
  <path class="cls-1" d="m167.33,86.14c-1.76,4.73,8.42,7.56,8.42,7.56,1.19-2.19,2.59-4.8,4.2-7.61,1.99-3.46,4.31-7.22,7.01-10.89,4.06-5.54,8.95-10.88,14.79-14.62.05-.03.11-.06.16-.1,6.43-3.96,12.12,2.52,12.15,2.55,0-.07-.01-.14-.02-.2-.01-.14-.03-.28-.04-.42-.02-.15-.04-.3-.06-.45-.01-.08-.02-.16-.03-.24-.02-.16-.05-.31-.07-.47-.01-.08-.03-.16-.04-.24-.03-.14-.05-.28-.08-.43-.02-.1-.04-.2-.06-.29-.03-.12-.05-.24-.08-.35-.03-.12-.06-.25-.09-.37-.02-.09-.05-.18-.08-.27-.04-.15-.09-.3-.14-.45-.02-.06-.04-.12-.06-.19-.06-.18-.12-.35-.19-.53-.01-.04-.03-.08-.04-.11-.08-.2-.16-.4-.24-.59,0-.02-.01-.03-.02-.05-.09-.21-.19-.43-.29-.64,0,0,0,0,0,0-.42-.86-.94-1.69-1.55-2.48,0,0,0,0,0-.01-.14-.18-.29-.37-.45-.55-.01-.01-.02-.03-.04-.04-.14-.17-.3-.33-.45-.5-.02-.03-.05-.05-.07-.08-.18-.19-.36-.37-.55-.55-4.25-4-10.6-3.4-14.73-.52-4.47,3.13-9.75,8.13-14.57,13.85-2.56,3.03-4.98,6.26-7.09,9.52-2.34,3.63-4.29,7.3-5.58,10.76Z"/>
  <path class="cls-1" d="m236.67,99.93c-.1-.44-.23-.87-.37-1.28-.04-.11-.07-.22-.11-.32-.1-.28-.21-.55-.33-.82-1.22-2.82-3.25-5.02-5.65-6.76-.07-.05-.14-.09-.2-.14-5.16-3.6-12.24-5.45-18.3-7.87-4.63-1.85-8.66-4.04-10.72-7.62-.02.08-.04.16-.05.25-.7,3.32-1.4,6.47-1.36,9.21,0,.03,0,.05,0,.08,0,.24.02.48.03.72,0,.07.01.15.02.22.02.19.04.39.06.57.02.11.04.21.06.32.03.15.05.31.09.46.03.13.07.26.1.4.03.12.06.24.1.36.05.16.11.31.17.46.03.09.06.18.1.26.1.24.22.47.35.69s.27.44.42.65c.06.08.12.14.18.22.1.13.2.26.32.38.08.09.17.18.26.27.1.1.19.19.29.29.11.1.23.2.35.3.08.07.16.14.25.21.15.12.31.23.46.34.06.04.12.09.18.13.2.13.4.26.61.39.02.01.04.03.07.04,2.35,1.4,5.43,2.38,8.65,3.43.08.03.16.05.24.08,4.8,1.54,9.84,3.19,13.15,6.52.75.76,1.41,1.6,1.96,2.55,1.46,2.54,2.5,5.76,1.69,8.04,4.56-2.13,8.25-7.33,6.91-13.01Z"/>
</svg>