<?xml version="1.0" encoding="UTF-8"?>
<svg id="logo" xmlns="http://www.w3.org/2000/svg" viewBox="0 0 360 201">
  <defs>
    <style>
      .cls-1 {
        fill: #fff;
        stroke-width: 0px;
      }
    </style>
  </defs>
  <rect class="cls-1" x="162.27" y="125.97" width="35.47" height="6.68"/>
  <rect class="cls-1" x="162.27" y="139.32" width="35.47" height="6.68"/>
  <g>
    <polygon class="cls-1" points="147.88 55 147.88 90.46 167.31 90.46 161.61 96.16 166.33 100.88 180.09 87.13 166.33 73.37 161.61 78.09 167.31 83.79 154.55 83.79 154.55 61.68 205.45 61.68 205.45 75.73 212.12 75.73 212.12 55 147.88 55"/>
    <polygon class="cls-1" points="193.16 83.79 198.86 78.09 194.13 73.37 180.37 87.13 194.13 100.88 198.86 96.16 193.16 90.46 205.45 90.46 205.45 112.57 154.55 112.57 154.55 98.52 147.88 98.52 147.88 119.25 212.12 119.25 212.12 83.79 193.16 83.79"/>
  </g>
</svg>