<?xml version="1.0" encoding="UTF-8"?>
<svg id="logo" xmlns="http://www.w3.org/2000/svg" viewBox="0 0 360 201">
  <defs>
    <style>
      .cls-1 {
        fill: #fff;
        stroke-width: 0px;
      }
    </style>
  </defs>
  <rect class="cls-1" x="184.77" y="48.5" width="8.42" height="8.42"/>
  <polygon class="cls-1" points="163.99 102.79 156.74 95.54 156.74 84.92 144.71 84.92 144.71 96.96 155.33 96.96 162.57 104.2 162.57 117.23 177.01 117.23 177.01 102.79 163.99 102.79"/>
  <rect class="cls-1" x="161.37" y="63.45" width="16.85" height="16.85"/>
  <circle class="cls-1" cx="169.79" cy="148.29" r="4.21"/>
  <path class="cls-1" d="m208.07,102.79c-1.64,0-3.15.55-4.36,1.47l-9.84-9.83c.7-.98,1.12-2.18,1.12-3.49,0-3.32-2.69-6.02-6.02-6.02s-6.02,2.69-6.02,6.02,2.69,6.02,6.02,6.02c1.3,0,2.5-.42,3.48-1.12l9.84,9.84c-.91,1.21-1.45,2.7-1.45,4.33s.55,3.13,1.46,4.34l-8.13,8.13c-1.43-1.13-3.24-1.81-5.2-1.81-4.65,0-8.42,3.77-8.42,8.42s3.77,8.42,8.42,8.42,8.42-3.77,8.42-8.42c0-1.97-.68-3.77-1.81-5.2l8.13-8.13c1.21.91,2.71,1.46,4.34,1.46,3.99,0,7.22-3.23,7.22-7.22s-3.23-7.22-7.22-7.22Z"/>
</svg>