<?xml version="1.0" encoding="UTF-8"?>
<svg id="logo" xmlns="http://www.w3.org/2000/svg" viewBox="0 0 360 201">
  <defs>
    <style>
      .cls-1 {
        fill: #fff;
        stroke-width: 0px;
      }
    </style>
  </defs>
  <path class="cls-1" d="m167.38,137.53c-3.24,3.24-7.54,5.02-12.11,5.02s-8.88-1.78-12.12-5.02c-3.24-3.24-5.02-7.53-5.02-12.11s1.78-8.88,5.02-12.12l-7.04-7.04c-5.12,5.12-7.93,11.92-7.93,19.16s2.82,14.04,7.93,19.15c5.12,5.12,11.92,7.94,19.16,7.94s14.04-2.82,19.15-7.94l15.55-15.54c5.96-5.96,8.57-14.16,7.7-22.11l-30.29,30.62Z"/>
  <path class="cls-1" d="m158.52,103.42l-15.55-15.55c-3.24-3.24-5.02-7.53-5.02-12.11s1.78-8.88,5.02-12.12c3.24-3.24,7.54-5.02,12.12-5.02s8.88,1.78,12.11,5.02l7.04-7.04c-5.12-5.12-11.92-7.94-19.15-7.94s-14.04,2.82-19.16,7.94c-5.12,5.12-7.93,11.92-7.93,19.16s2.82,14.04,7.93,19.15l15.55,15.55c5.23,5.23,12.18,7.93,19.18,7.93.95,0,1.91-.11,2.86-.21,0,0-14.54-14.3-15-14.76Z"/>
  <path class="cls-1" d="m192.63,63.46c6.68-6.68,17.55-6.68,24.23,0,6.68,6.68,6.68,17.55,0,24.23l7.04,7.04c5.12-5.12,7.94-11.92,7.94-19.16s-2.82-14.04-7.94-19.16c-10.56-10.56-27.74-10.56-38.31,0l-15.55,15.55c-5.91,5.91-8.53,14-7.74,21.88l30.33-30.38Z"/>
  <path class="cls-1" d="m224.08,106.07l-15.54-15.54c-5.93-5.93-14.05-8.55-21.96-7.73l30.46,30.32c6.68,6.68,6.68,17.55,0,24.23-3.24,3.24-7.54,5.02-12.11,5.02s-8.88-1.78-12.11-5.02l-7.04,7.04c5.12,5.12,11.92,7.94,19.15,7.94s14.04-2.82,19.15-7.94c10.56-10.56,10.56-27.75,0-38.31Z"/>
</svg>